<?xml version="1.0" encoding="UTF-8" standalone="no"?>
<svg
   id="Ebene_3"
   data-name="Ebene 3"
   viewBox="0 0 209.37592 99.8442"
   version="1.1"
   sodipodi:docname="garlic-hub.svg"
   inkscape:version="1.4.2 (ebf0e940d0, 2025-05-08)"
   xmlns:inkscape="http://www.inkscape.org/namespaces/inkscape"
   xmlns:sodipodi="http://sodipodi.sourceforge.net/DTD/sodipodi-0.dtd"
   xmlns="http://www.w3.org/2000/svg"
   xmlns:svg="http://www.w3.org/2000/svg">
  <sodipodi:namedview
     id="namedview19"
     pagecolor="#ffffff"
     bordercolor="#666666"
     borderopacity="1.0"
     inkscape:showpageshadow="2"
     inkscape:pageopacity="0.0"
     inkscape:pagecheckerboard="0"
     inkscape:deskcolor="#d1d1d1"
     inkscape:zoom="13.350801"
     inkscape:cx="104.26341"
     inkscape:cy="49.922098"
     inkscape:window-width="3810"
     inkscape:window-height="1542"
     inkscape:window-x="0"
     inkscape:window-y="0"
     inkscape:window-maximized="1"
     inkscape:current-layer="Ebene_3" />
  <defs
     id="defs1">
    <style
       id="style1">.cls-1,.cls-3,.cls-5,.cls-6,.cls-7,.cls-8{fill:none;}.cls-2{clip-path:url(#clip-path);}.cls-3,.cls-5,.cls-6,.cls-7,.cls-8{stroke:#9a90de;}.cls-3{stroke-width:1.5px;}.cls-4{fill:#9a90de;}.cls-5,.cls-7,.cls-8{stroke-linecap:round;}.cls-5,.cls-6,.cls-7,.cls-8{stroke-linejoin:round;}.cls-5{stroke-width:0.28px;}.cls-6,.cls-7{stroke-width:1.121px;}.cls-8{stroke-width:0.561px;}</style>
    <clipPath
       id="clip-path">
      <rect
         class="cls-1"
         x="19.39985"
         y="15.42543"
         width="209.306"
         height="65.977"
         id="rect1" />
    </clipPath>
  </defs>
  <line
     class="cls-3"
     x1="97.460854"
     y1="19.80162"
     x2="97.460854"
     y2="80.402634"
     id="line1"
     style="stroke:#03393a" />
  <path
     class="cls-4"
     d="m 46.89385,36.79012 c 0,0 -13.657,-0.636 -17.76,10.491 0,0 -3.986,12.109 9.395,18.799 a 31.4357,31.4357 0 0 0 27.091,-0.636 16.99088,16.99088 0 0 0 6.706,-6.401 15.09924,15.09924 0 0 0 -0.666,-16.328 27.83541,27.83541 0 0 0 -6.358,-5.723 53.35283,53.35283 0 0 0 -5.15,-3.179 c -2.695,-1.452 -5.927,-2.767 -7.377,-4.175 0,0 -3.919,-3.077 -3.497,-9.697 0,0 -2.891,7.037 2.832,12.283 a 26.67994,26.67994 0 0 0 5.976,4.037 c 0.16,0.083 1.876,1.081 3.274,2.003 3.527,2.324 8.393,5.404 8.423,11.719 a 12.409,12.409 0 0 1 -2.573,7.991 16.07549,16.07549 0 0 1 -7.185,5.721 c 0,0 -8.71,3.561 -17.264,0.116 0,0 -10.774,-4.248 -9.63,-15.248 a 9.95713,9.95713 0 0 1 2.035,-4.808 19.07247,19.07247 0 0 1 11.728,-6.965"
     id="path1"
     style="fill:#03393a" />
  <path
     class="cls-5"
     d="m 46.89385,36.79012 c 0,0 -13.657,-0.636 -17.76,10.491 0,0 -3.986,12.109 9.395,18.799 a 31.4357,31.4357 0 0 0 27.091,-0.636 16.99088,16.99088 0 0 0 6.706,-6.401 15.09924,15.09924 0 0 0 -0.666,-16.328 27.83541,27.83541 0 0 0 -6.358,-5.723 53.35283,53.35283 0 0 0 -5.15,-3.179 c -2.695,-1.452 -5.927,-2.767 -7.377,-4.175 0,0 -3.919,-3.077 -3.497,-9.697 0,0 -2.891,7.037 2.832,12.283 a 26.67994,26.67994 0 0 0 5.976,4.037 c 0.16,0.083 1.876,1.081 3.274,2.003 3.527,2.324 8.393,5.404 8.423,11.719 a 12.409,12.409 0 0 1 -2.573,7.991 16.07549,16.07549 0 0 1 -7.185,5.721 c 0,0 -8.71,3.561 -17.264,0.116 0,0 -10.774,-4.248 -9.63,-15.248 a 9.95713,9.95713 0 0 1 2.035,-4.808 19.07247,19.07247 0 0 1 11.728,-6.965 z"
     id="path2"
     style="stroke:#03393a" />
  <rect
     class="cls-4"
     x="54.29885"
     y="46.86642"
     width="8.853"
     height="1.705"
     id="rect2" />
  <rect
     class="cls-6"
     x="54.29885"
     y="46.86642"
     width="8.853"
     height="1.705"
     id="rect3"
     style="stroke:#03393a;fill:#03393a" />
  <g
     class="cls-2"
     clip-path="url(#clip-path)"
     id="g8"
     style="stroke-width:1;stroke-dasharray:none;fill:#03393a;stroke:#03393a">
    <path
       class="cls-4"
       d="M29.31125,37.11892s-9.392,5.143-9.348,15.292a17.195,17.195,0,0,0,10.892,15.866s-9.209-6.303-8.83-16.655c0,0-.01-7.663,7.286-14.503"
       id="path3"
       style="stroke-width:1;stroke-dasharray:none;fill:#03393a;stroke:#03393a" />
    <path
       class="cls-7"
       d="M29.31125,37.11892s-9.392,5.143-9.348,15.292a17.195,17.195,0,0,0,10.892,15.866s-9.209-6.303-8.83-16.655C22.02525,51.62192,22.01525,43.95892,29.31125,37.11892Z"
       id="path4"
       style="stroke-width:1;stroke-dasharray:none;fill:#03393a;stroke:#03393a" />
    <path
       class="cls-4"
       d="M74.09435,37.08872s9.254,5.387,8.944,15.531a17.19633,17.19633,0,0,1-11.303,15.576s9.371-6.06,9.263-16.419c0,0,.21-7.659-6.904-14.688"
       id="path5"
       style="stroke-width:1;stroke-dasharray:none;fill:#03393a;stroke:#03393a" />
    <path
       class="cls-7"
       d="M74.09435,37.08872s9.254,5.387,8.944,15.531a17.19633,17.19633,0,0,1-11.303,15.576s9.371-6.06,9.263-16.419C80.99835,51.77672,81.20835,44.11772,74.09435,37.08872Z"
       id="path6"
       style="stroke-width:1;stroke-dasharray:none;fill:#03393a;stroke:#03393a" />
    <path
       class="cls-4"
       d="M51.04555,58.044s-5.86-.459-9.202-4.312c0,0-2.224-2.092-2.731-7.209-.092-.923-2.647,5.589,2.847,10.522a13.51161,13.51161,0,0,0,9.074,3.366s0-.233.012-2.367"
       id="path7"
       style="stroke-width:1;stroke-dasharray:none;fill:#03393a;stroke:#03393a" />
    <path
       class="cls-8"
       d="M51.04555,58.044s-5.86-.459-9.202-4.312c0,0-2.224-2.092-2.731-7.209-.092-.923-2.647,5.589,2.847,10.522a13.51161,13.51161,0,0,0,9.074,3.366S51.03356,60.178,51.04555,58.044Z"
       id="path8"
       style="stroke-width:1;stroke-dasharray:none;fill:#03393a;stroke:#03393a" />
  </g>
  <path
     class="cls-4"
     d="M116.21418,46.13778a10.51326,10.51326,0,0,1-1.98926-.17188,5.523,5.523,0,0,1-1.51758-.50488,2.54188,2.54188,0,0,1-.9668-.83691,2.1154,2.1154,0,0,1-.333-1.19239,2.3429,2.3429,0,0,1,.27636-1.14648,2.55048,2.55048,0,0,1,.72364-.83691,3.22276,3.22276,0,0,1,.97753-.49317l.69043.41309a3.589,3.589,0,0,0-.667.5039,1.5145,1.5145,0,0,0-.36816.584,2.41172,2.41172,0,0,0-.11524.79,1.14281,1.14281,0,0,0,.23047.69922,1.73017,1.73017,0,0,0,.65528.51464,4.123,4.123,0,0,0,1.03515.32129,7.604,7.604,0,0,0,1.3916.11426,5.5901,5.5901,0,0,0,1.71387-.2168,2.14441,2.14441,0,0,0,.97656-.59472,1.2867,1.2867,0,0,0,.32227-.8584,1.6519,1.6519,0,0,0-.1836-.8252,1.19043,1.19043,0,0,0-.75878-.48144,6.99457,6.99457,0,0,0-1.748-.16113,14.43785,14.43785,0,0,1-1.47266-.06836,6.35236,6.35236,0,0,1-1.19531-.2295,3.28784,3.28784,0,0,1-.88574-.40136,1.63091,1.63091,0,0,1-.541-.585,1.68082,1.68082,0,0,1-.18359-.80176,2.19135,2.19135,0,0,1,.333-1.14844,4.58237,4.58237,0,0,1,.90918-1.05664l.78222.62109a4.62048,4.62048,0,0,0-.36816.44727,1.398,1.398,0,0,0-.19531.36816,1.16826,1.16826,0,0,0-.05762.37891.72644.72644,0,0,0,.28711.5957,2.158,2.158,0,0,0,1.001.333,14.23785,14.23785,0,0,0,1.93165.10254,8.1881,8.1881,0,0,1,1.97753.19531,2.70317,2.70317,0,0,1,1.16211.56153,1.99658,1.99658,0,0,1,.56348.84863,3.32716,3.32716,0,0,1,.16113,1.05469,2.96021,2.96021,0,0,1-.24218,1.18066,2.75031,2.75031,0,0,1-.77051,1.00879,3.89548,3.89548,0,0,1-1.40235.71094A7.4956,7.4956,0,0,1,116.21418,46.13778Zm-.48243-7.498a3.7981,3.7981,0,0,1-1.95507-.48535,3.35318,3.35318,0,0,1-1.27637-1.30859,3.73687,3.73687,0,0,1-.44922-1.81641,3.67657,3.67657,0,0,1,.44922-1.80566,3.37206,3.37206,0,0,1,1.27637-1.29786,4.202,4.202,0,0,1,3.92089,0,3.39194,3.39194,0,0,1,1.26563,1.29786,3.67589,3.67589,0,0,1,.44824,1.80566,3.73616,3.73616,0,0,1-.44824,1.81641,3.37288,3.37288,0,0,1-1.26563,1.30859A3.78135,3.78135,0,0,1,115.73175,38.63973Zm0-1.37988a2.3107,2.3107,0,0,0,1.18457-.30176,2.21893,2.21893,0,0,0,.81641-.81348,2.25232,2.25232,0,0,0,0-2.24218,2.25293,2.25293,0,0,0-.81641-.80371,2.483,2.483,0,0,0-2.36914,0,2.253,2.253,0,0,0-.8164.80371,2.25232,2.25232,0,0,0,0,2.24218,2.219,2.219,0,0,0,.8164.81348A2.3057,2.3057,0,0,0,115.73175,37.25985Zm3.0586-3.84082-.64356-.75977a4.46155,4.46155,0,0,1,1.3916-.97656,3.66376,3.66376,0,0,1,1.7129-.24219l.207,1.35743a5.48919,5.48919,0,0,0-1.42578.04589A2.70627,2.70627,0,0,0,118.79035,33.419Z"
     id="path9"
     style="fill:#03393a" />
  <path
     class="cls-4"
     d="M129.18586,42.36532a4.1689,4.1689,0,0,1-2.75977-.81348,2.59245,2.59245,0,0,1-.96582-2.07422,2.85511,2.85511,0,0,1,.41406-1.52343A3.61211,3.61211,0,0,1,127.013,36.8077a5.73184,5.73184,0,0,1,1.69043-.72168,8.07879,8.07879,0,0,1,2.04688-.252q.39111,0,.79394.01074c.26758.00879.55176.02344.85059.04688q.44825.03369.93164.10351l.0459,1.26465c-.27637-.0459-.55567-.08106-.83984-.10352-.28321-.02343-.56348-.042-.83887-.05761-.27637-.01465-.54492-.02344-.80567-.02344a7.84392,7.84392,0,0,0-1.51757.13769,4.21925,4.21925,0,0,0-1.19629.41211,2.08055,2.08055,0,0,0-.78223.708,1.92766,1.92766,0,0,0-.27539,1.05274,1.7496,1.7496,0,0,0,.17187.81152,1.36811,1.36811,0,0,0,.47168.52637,2.15558,2.15558,0,0,0,.70215.28613,4.01843,4.01843,0,0,0,.88477.09082,4.20815,4.20815,0,0,0,1.59863-.28516,3.22789,3.22789,0,0,0,1.19629-.832,3.606,3.606,0,0,0,.74707-1.34668,6.02875,6.02875,0,0,0,.25293-1.82422,6.37156,6.37156,0,0,0-.36719-2.418,2.33493,2.33493,0,0,0-1.09277-1.23144,4.46264,4.46264,0,0,0-3.34668-.07813,3.87376,3.87376,0,0,0-1.334.88575l-.80469-1.05762a4.77968,4.77968,0,0,1,1.70215-1.10449,5.69914,5.69914,0,0,1,2.04687-.36817,6.62874,6.62874,0,0,1,1.88574.25293,3.53038,3.53038,0,0,1,1.46094.83985,3.85605,3.85605,0,0,1,.94238,1.57519,7.8725,7.8725,0,0,1,.334,2.48438v5.58886h-1.79395V40.503a3.16948,3.16948,0,0,1-.72461.94239,3.23,3.23,0,0,1-.90918.56347,4.48581,4.48581,0,0,1-.98828.27637A6.16225,6.16225,0,0,1,129.18586,42.36532Z"
     id="path10"
     style="fill:#03393a" />
  <path
     class="cls-4"
     d="M140.848,31.671h1.72461l-.06933,3.082-.207-.3457a3.71516,3.71516,0,0,1,.4834-1.26465,3.55833,3.55833,0,0,1,1.88574-1.50683,3.70521,3.70521,0,0,1,1.19629-.19532,3.98182,3.98182,0,0,1,1.52929.28809,3.64418,3.64418,0,0,1,1.25391.8623l-.73633,1.28809-.0918.207-.16113-.09277a1.41355,1.41355,0,0,0-.13769-.34473,1.55522,1.55522,0,0,0-.3916-.39062,2.48,2.48,0,0,0-.67774-.31055,2.80228,2.80228,0,0,0-.70215-.08106,3.23821,3.23821,0,0,0-1.14941.21778,3.03774,3.03774,0,0,0-1.04688.67578,3.22092,3.22092,0,0,0-.74707,1.167,4.65429,4.65429,0,0,0-.27636,1.69336v5.56152H140.848Z"
     id="path11"
     style="fill:#03393a" />
  <path
     class="cls-4"
     d="M153.72785,42.18172v-1.334h3.10449v-12.627h-2.9668v-1.334h4.64551V40.84774h3.082v1.334Z"
     id="path12"
     style="fill:#03393a" />
  <path
     class="cls-4"
     d="M168.01007,42.18172v-1.334h2.69141V33.005h-2.55273V31.671h4.209v9.17676h2.46094v1.334ZM171.43683,29.463a1.18038,1.18038,0,0,1-1.17285-1.17285,1.17741,1.17741,0,0,1,.334-.85156,1.11851,1.11851,0,0,1,.83887-.34473,1.21761,1.21761,0,0,1,1.19629,1.19629,1.11114,1.11114,0,0,1-.35644.82715A1.16774,1.16774,0,0,1,171.43683,29.463Z"
     id="path13"
     style="fill:#03393a" />
  <path
     class="cls-4"
     d="M183.94953,41.95321a4.98732,4.98732,0,0,1-1.668-1.14453,5.24737,5.24737,0,0,1-1.09277-1.72949,5.93635,5.93635,0,0,1-.39063-2.1875,5.87036,5.87036,0,0,1,.39063-2.16407,5.24737,5.24737,0,0,1,1.09277-1.72949,5.004,5.004,0,0,1,1.668-1.14551,5.27864,5.27864,0,0,1,2.09277-.41211,5.05586,5.05586,0,0,1,2.31152.51758,4.45125,4.45125,0,0,1,1.667,1.4375l-1.03516,1.01172-.16016.16113-.11523-.11425a.76271.76271,0,0,0-.08106-.34571,1.95213,1.95213,0,0,0-.35644-.43652,2.93715,2.93715,0,0,0-1.08106-.64453,4.4,4.4,0,0,0-1.334-.1836,3.00132,3.00132,0,0,0-1.26465.27442,3.31575,3.31575,0,0,0-1.06933.78906,3.82215,3.82215,0,0,0-.74805,1.24609,4.58162,4.58162,0,0,0-.27539,1.624,4.66919,4.66919,0,0,0,.27539,1.63476,4.0801,4.0801,0,0,0,.75976,1.292,3.388,3.388,0,0,0,1.16114.85742,3.48242,3.48242,0,0,0,1.46094.30957,3.37422,3.37422,0,0,0,1.01171-.15039,3.58859,3.58859,0,0,0,.91993-.43653,4.07883,4.07883,0,0,0,.80468-.70117l.96582,1.127a5.25512,5.25512,0,0,1-1.73632,1.24122,5.1114,5.1114,0,0,1-2.0586.41406A5.33752,5.33752,0,0,1,183.94953,41.95321Z"
     id="path14"
     style="fill:#03393a" />
  <g
     inkscape:label="Clip"
     id="g32"
     transform="translate(-64.26581,21.122329)">
    <g
       id="g33" />
  </g>
  <path
     class="cls-4"
     d="m 129.57258,67.908796 a 3.7013,3.7013 0 0 1 -1.17286,-0.18262 2.99792,2.99792 0 0 1 -1.001,-0.55957 3.40779,3.40779 0 0 1 -0.77051,-0.94824 4.88272,4.88272 0 0 1 -0.49414,-1.37109 8.581,8.581 0 0 1 -0.17285,-1.80567 l 0.0234,-5.82715 h 1.61035 v 5.82227 a 6.48537,6.48537 0 0 0 0.18359,1.666 2.91748,2.91748 0 0 0 0.51758,1.09668 1.95448,1.95448 0 0 0 0.77051,0.59278 2.35383,2.35383 0 0 0 0.91992,0.18261 2.64294,2.64294 0 0 0 1.9668,-0.86718 3.05026,3.05026 0 0 0 0.63183,-1.11914 5.10072,5.10072 0 0 0 0.23047,-1.6211 v -5.75292 h 1.60938 v 8.87793 q 0,0.41308 0.0352,0.81641 a 2.92017,2.92017 0 0 0 0.19531,0.81641 h -1.58691 a 2.69019,2.69019 0 0 1 -0.16113,-0.56348 4.4394,4.4394 0 0 1 -0.0576,-0.56348 c -0.008,-0.19238 -0.0117,-0.376 -0.0117,-0.55176 a 3.75527,3.75527 0 0 1 -0.59765,0.78125 3.58225,3.58225 0 0 1 -0.77051,0.58692 3.81049,3.81049 0 0 1 -0.89649,0.36816 3.8664,3.8664 0 0 1 -1.00094,0.12598 z"
     id="path17"
     style="fill:#03393a" />
  <path
     class="cls-4"
     d="m 112.50696,52.504689 h 1.81739 v 0.16211 a 0.60294,0.60294 0 0 0 -0.17286,0.29981 3.08346,3.08346 0 0 0 -0.0342,0.55371 v 5.65476 a 4.9076,4.9076 0 0 1 0.97753,-1.11524 4.663,4.663 0 0 1 1.19629,-0.73633 3.28873,3.28873 0 0 1 1.27637,-0.26465 3.16594,3.16594 0 0 1 1.667,0.43653 2.83854,2.83854 0 0 1 1.127,1.39941 6.71381,6.71381 0 0 1 0.40234,2.54785 v 6.35743 h -1.60938 v -6.30955 a 4.9942,4.9942 0 0 0 -0.25293,-1.75488 1.89771,1.89771 0 0 0 -0.69042,-0.94043 1.76078,1.76078 0 0 0 -0.98926,-0.28711 2.8233,2.8233 0 0 0 -0.85061,0.1377 3.18085,3.18085 0 0 0 -0.83982,0.41308 3.36009,3.36009 0 0 0 -0.72461,0.67676 3.1851,3.1851 0 0 0 -0.50586,0.90625 3.25436,3.25436 0 0 0 -0.18359,1.124 v 6.03418 h -1.61036 z"
     id="path20"
     style="fill:#03393a;fill-opacity:1" />
  <text
     style="font-size:22.4488px;line-height:1.25;font-family:Inconsolata;-inkscape-font-specification:'Inconsolata, Normal';font-variant-ligatures:none;text-align:center;letter-spacing:0px;word-spacing:0px;fill:#03393a"
     x="139.47762"
     y="68.050323"
     id="text1">b</text>
</svg>
