<svg id="Ebene_3" data-name="Ebene 3" xmlns="http://www.w3.org/2000/svg" xmlns:xlink="http://www.w3.org/1999/xlink" viewBox="0 0 223.17523 99.8442"><defs><style>.cls-1,.cls-3,.cls-5,.cls-6,.cls-7,.cls-8{fill:none;}.cls-2{clip-path:url(#clip-path);}.cls-3,.cls-5,.cls-6,.cls-7,.cls-8{stroke:#4d7091;}.cls-3{stroke-width:1.5px;}.cls-4{fill:#4d7091;}.cls-5,.cls-7,.cls-8{stroke-linecap:round;}.cls-5,.cls-6,.cls-7,.cls-8{stroke-linejoin:round;}.cls-5{stroke-width:0.28px;}.cls-6,.cls-7{stroke-width:1.121px;}.cls-8{stroke-width:0.561px;}</style><clipPath id="clip-path"><rect class="cls-1" x="19.45017" y="15.53718" width="219.899" height="65.977"/></clipPath></defs><g class="cls-2"><line class="cls-3" x1="97.51117" y1="19.91338" x2="97.51117" y2="80.51438"/><path class="cls-4" d="M46.94417,36.90188s-13.657-.636-17.76,10.491c0,0-3.986,12.109,9.395,18.799a31.4357,31.4357,0,0,0,27.091-.636,16.99088,16.99088,0,0,0,6.706-6.401,15.09924,15.09924,0,0,0-.666-16.328,27.83548,27.83548,0,0,0-6.358-5.723,53.35379,53.35379,0,0,0-5.15-3.179c-2.695-1.452-5.927-2.767-7.377-4.175,0,0-3.919-3.077-3.497-9.697,0,0-2.891,7.037,2.832,12.283a26.67974,26.67974,0,0,0,5.976,4.037c.16.083,1.876,1.081,3.274,2.003,3.527,2.324,8.393,5.404,8.423,11.719a12.40887,12.40887,0,0,1-2.573,7.991,16.07549,16.07549,0,0,1-7.185,5.721s-8.71,3.561-17.264.116c0,0-10.774-4.248-9.63-15.248a9.95713,9.95713,0,0,1,2.035-4.808,19.07247,19.07247,0,0,1,11.728-6.965"/><path class="cls-5" d="M46.94417,36.90188s-13.657-.636-17.76,10.491c0,0-3.986,12.109,9.395,18.799a31.4357,31.4357,0,0,0,27.091-.636,16.99088,16.99088,0,0,0,6.706-6.401,15.09924,15.09924,0,0,0-.666-16.328,27.83548,27.83548,0,0,0-6.358-5.723,53.35379,53.35379,0,0,0-5.15-3.179c-2.695-1.452-5.927-2.767-7.377-4.175,0,0-3.919-3.077-3.497-9.697,0,0-2.891,7.037,2.832,12.283a26.67974,26.67974,0,0,0,5.976,4.037c.16.083,1.876,1.081,3.274,2.003,3.527,2.324,8.393,5.404,8.423,11.719a12.40887,12.40887,0,0,1-2.573,7.991,16.07549,16.07549,0,0,1-7.185,5.721s-8.71,3.561-17.264.116c0,0-10.774-4.248-9.63-15.248a9.95713,9.95713,0,0,1,2.035-4.808A19.07247,19.07247,0,0,1,46.94417,36.90188Z"/></g><rect class="cls-4" x="54.34917" y="46.97818" width="8.853" height="1.705"/><rect class="cls-6" x="54.34917" y="46.97818" width="8.853" height="1.705"/><g class="cls-2"><path class="cls-4" d="M29.36157,37.23068s-9.392,5.143-9.348,15.292a17.195,17.195,0,0,0,10.892,15.866s-9.209-6.303-8.83-16.655c0,0-.01-7.663,7.286-14.503"/><path class="cls-7" d="M29.36157,37.23068s-9.392,5.143-9.348,15.292a17.195,17.195,0,0,0,10.892,15.866s-9.209-6.303-8.83-16.655C22.07557,51.73368,22.06557,44.07068,29.36157,37.23068Z"/><path class="cls-4" d="M74.14467,37.20048s9.254,5.387,8.944,15.531a17.19635,17.19635,0,0,1-11.303,15.576s9.371-6.06,9.263-16.419c0,0,.21-7.659-6.904-14.688"/><path class="cls-7" d="M74.14467,37.20048s9.254,5.387,8.944,15.531a17.19635,17.19635,0,0,1-11.303,15.576s9.371-6.06,9.263-16.419C81.04867,51.88848,81.25867,44.22948,74.14467,37.20048Z"/><path class="cls-4" d="M51.09588,58.15578s-5.86-.459-9.202-4.312c0,0-2.224-2.092-2.731-7.209-.092-.923-2.647,5.589,2.847,10.522a13.51161,13.51161,0,0,0,9.074,3.366s0-.233.012-2.367"/><path class="cls-8" d="M51.09588,58.15578s-5.86-.459-9.202-4.312c0,0-2.224-2.092-2.731-7.209-.092-.923-2.647,5.589,2.847,10.522a13.51161,13.51161,0,0,0,9.074,3.366S51.08388,60.28978,51.09588,58.15578Z"/></g><path class="cls-4" d="M116.26441,46.2496a10.51334,10.51334,0,0,1-1.98926-.17188,5.523,5.523,0,0,1-1.51758-.50488,2.5419,2.5419,0,0,1-.9668-.83692,2.11543,2.11543,0,0,1-.333-1.19238,2.34287,2.34287,0,0,1,.27636-1.14648,2.55051,2.55051,0,0,1,.72364-.83692,3.2229,3.2229,0,0,1,.97754-.49316l.69043.41308a3.58837,3.58837,0,0,0-.667.50391,1.51454,1.51454,0,0,0-.36816.584,2.41177,2.41177,0,0,0-.11523.79,1.14276,1.14276,0,0,0,.23046.69922,1.73019,1.73019,0,0,0,.65528.51465,4.123,4.123,0,0,0,1.03515.32129,7.60477,7.60477,0,0,0,1.39161.11426,5.59038,5.59038,0,0,0,1.71386-.2168,2.14437,2.14437,0,0,0,.97656-.59473,1.28665,1.28665,0,0,0,.32227-.85839,1.652,1.652,0,0,0-.18359-.8252,1.19048,1.19048,0,0,0-.75879-.48144,6.994,6.994,0,0,0-1.748-.16114,14.43785,14.43785,0,0,1-1.47266-.06836,6.35319,6.35319,0,0,1-1.19531-.22949,3.28768,3.28768,0,0,1-.88574-.40137,1.63075,1.63075,0,0,1-.541-.585,1.68075,1.68075,0,0,1-.18359-.80175,2.19135,2.19135,0,0,1,.333-1.14844,4.58237,4.58237,0,0,1,.90918-1.05664l.78222.62109a4.61927,4.61927,0,0,0-.36816.44727,1.398,1.398,0,0,0-.19531.36816,1.16853,1.16853,0,0,0-.05762.37891.72644.72644,0,0,0,.28711.5957,2.15813,2.15813,0,0,0,1.001.333,14.23769,14.23769,0,0,0,1.93164.10254,8.18825,8.18825,0,0,1,1.97754.19531,2.70317,2.70317,0,0,1,1.16211.56152,1.99668,1.99668,0,0,1,.56347.84864,3.32714,3.32714,0,0,1,.16114,1.05468,2.96026,2.96026,0,0,1-.24219,1.18067,2.75031,2.75031,0,0,1-.77051,1.00879,3.8955,3.8955,0,0,1-1.40234.71093A7.49569,7.49569,0,0,1,116.26441,46.2496Zm-.48242-7.498a3.79814,3.79814,0,0,1-1.95508-.48535,3.35321,3.35321,0,0,1-1.27637-1.3086,3.73681,3.73681,0,0,1-.44922-1.8164,3.67663,3.67663,0,0,1,.44922-1.80567,3.372,3.372,0,0,1,1.27637-1.29785,4.202,4.202,0,0,1,3.9209,0,3.392,3.392,0,0,1,1.26562,1.29785,3.676,3.676,0,0,1,.44824,1.80567,3.7361,3.7361,0,0,1-.44824,1.8164,3.373,3.373,0,0,1-1.26562,1.3086A3.7814,3.7814,0,0,1,115.782,38.75155Zm0-1.37988a2.31075,2.31075,0,0,0,1.18457-.30176,2.219,2.219,0,0,0,.8164-.81348,2.25234,2.25234,0,0,0,0-2.24219,2.253,2.253,0,0,0-.8164-.80371,2.483,2.483,0,0,0-2.36914,0,2.25293,2.25293,0,0,0-.81641.80371,2.25234,2.25234,0,0,0,0,2.24219,2.219,2.219,0,0,0,.81641.81348A2.30565,2.30565,0,0,0,115.782,37.37167Zm3.05859-3.84082-.64356-.75977a4.46114,4.46114,0,0,1,1.39161-.97656,3.6637,3.6637,0,0,1,1.71289-.24219l.207,1.35742a5.48918,5.48918,0,0,0-1.42578.0459A2.70617,2.70617,0,0,0,118.84058,33.53085Z"/><path class="cls-4" d="M129.23609,42.47713a4.1689,4.1689,0,0,1-2.75977-.81347,2.59245,2.59245,0,0,1-.96582-2.07422,2.85526,2.85526,0,0,1,.41406-1.52344,3.612,3.612,0,0,1,1.13868-1.14648,5.73161,5.73161,0,0,1,1.69043-.72168,8.07866,8.07866,0,0,1,2.04687-.252q.39111,0,.79395.01075c.26757.00879.55175.02343.85058.04687q.44825.03369.93164.10352l.0459,1.26465c-.27637-.0459-.55566-.08106-.83984-.10352-.28321-.02344-.56348-.042-.83887-.05762-.27637-.01465-.54492-.02343-.80566-.02343a7.844,7.844,0,0,0-1.51758.13769,4.21936,4.21936,0,0,0-1.19629.41211,2.08055,2.08055,0,0,0-.78223.708,1.92762,1.92762,0,0,0-.27539,1.05273,1.74955,1.74955,0,0,0,.17188.81153,1.36785,1.36785,0,0,0,.47168.52636,2.15544,2.15544,0,0,0,.70214.28614,4.019,4.019,0,0,0,.88477.09082,4.20815,4.20815,0,0,0,1.59863-.28516,3.22781,3.22781,0,0,0,1.19629-.832,3.60617,3.60617,0,0,0,.74707-1.34668,6.02884,6.02884,0,0,0,.25293-1.82422,6.37156,6.37156,0,0,0-.36719-2.418,2.33493,2.33493,0,0,0-1.09277-1.23144,4.46251,4.46251,0,0,0-3.34668-.07813,3.87373,3.87373,0,0,0-1.334.88574l-.80469-1.05761a4.77992,4.77992,0,0,1,1.70215-1.1045,5.69935,5.69935,0,0,1,2.04687-.36816,6.62881,6.62881,0,0,1,1.88575.25293,3.53032,3.53032,0,0,1,1.46093.83984,3.85617,3.85617,0,0,1,.94239,1.5752,7.87271,7.87271,0,0,1,.334,2.48437v5.58887H132.825V40.61483a3.16957,3.16957,0,0,1-.7246.94238,3.22994,3.22994,0,0,1-.90918.56348,4.48589,4.48589,0,0,1-.98829.27637A6.1622,6.1622,0,0,1,129.23609,42.47713Z"/><path class="cls-4" d="M140.8982,31.7828h1.72461l-.06934,3.082-.207-.3457a3.71529,3.71529,0,0,1,.4834-1.26465,3.55841,3.55841,0,0,1,1.88574-1.50684,3.70551,3.70551,0,0,1,1.19629-.19531,3.98168,3.98168,0,0,1,1.5293.28809,3.6441,3.6441,0,0,1,1.2539.8623l-.73633,1.28809-.09179.207-.16114-.09278a1.41308,1.41308,0,0,0-.13769-.34472,1.55471,1.55471,0,0,0-.3916-.39063,2.48,2.48,0,0,0-.67774-.31054,2.80176,2.80176,0,0,0-.70215-.08106,3.2382,3.2382,0,0,0-1.14941.21777,3.03749,3.03749,0,0,0-1.04687.67579,3.22064,3.22064,0,0,0-.74708,1.167,4.65426,4.65426,0,0,0-.27636,1.69336v5.56152H140.8982Z"/><path class="cls-4" d="M153.77808,42.29354v-1.334h3.10449V28.3326h-2.9668v-1.334h4.64551V40.95956h3.082v1.334Z"/><path class="cls-4" d="M168.06031,42.29354v-1.334h2.6914V33.11678H168.199v-1.334h4.209v9.17676h2.46094v1.334Zm3.42675-12.71875a1.18039,1.18039,0,0,1-1.17285-1.17285,1.17738,1.17738,0,0,1,.334-.85156,1.11845,1.11845,0,0,1,.83886-.34473,1.21761,1.21761,0,0,1,1.19629,1.19629,1.11114,1.11114,0,0,1-.35644.82715A1.16772,1.16772,0,0,1,171.48706,29.57479Z"/><path class="cls-4" d="M183.99976,42.065a4.9872,4.9872,0,0,1-1.668-1.14454A5.24727,5.24727,0,0,1,181.239,39.191a5.93628,5.93628,0,0,1-.39063-2.1875,5.87031,5.87031,0,0,1,.39063-2.16406A5.24727,5.24727,0,0,1,182.33179,33.11a5.004,5.004,0,0,1,1.668-1.14551,5.27864,5.27864,0,0,1,2.09277-.41211,5.05593,5.05593,0,0,1,2.31153.51758,4.45113,4.45113,0,0,1,1.667,1.4375l-1.03516,1.01172-.16015.16113-.11524-.11426a.76279.76279,0,0,0-.08105-.3457,1.952,1.952,0,0,0-.35645-.43652,2.93714,2.93714,0,0,0-1.08105-.64454,4.40008,4.40008,0,0,0-1.334-.18359,3.0015,3.0015,0,0,0-1.26465.27441,3.31589,3.31589,0,0,0-1.06933.78907,3.82215,3.82215,0,0,0-.74805,1.24609,4.58156,4.58156,0,0,0-.27539,1.624,4.66924,4.66924,0,0,0,.27539,1.63477,4.07989,4.07989,0,0,0,.75977,1.292,3.38783,3.38783,0,0,0,1.16113.85742,3.48226,3.48226,0,0,0,1.46094.30957,3.374,3.374,0,0,0,1.01172-.15039,3.58816,3.58816,0,0,0,.91992-.43652,4.07949,4.07949,0,0,0,.80469-.70117l.96582,1.127a5.255,5.255,0,0,1-1.73633,1.24121,5.11123,5.11123,0,0,1-2.0586.41406A5.33752,5.33752,0,0,1,183.99976,42.065Z"/><path class="cls-4" d="M115.0232,69.067a4.98732,4.98732,0,0,1-1.668-1.14453,5.24734,5.24734,0,0,1-1.09278-1.7295,5.93648,5.93648,0,0,1-.39062-2.1875,5.87051,5.87051,0,0,1,.39062-2.16406,5.2474,5.2474,0,0,1,1.09278-1.72949,5.004,5.004,0,0,1,1.668-1.14551,5.27864,5.27864,0,0,1,2.09277-.41211,5.05586,5.05586,0,0,1,2.31152.51758,4.45132,4.45132,0,0,1,1.667,1.4375l-1.03516,1.01172-.16016.16113-.11523-.11426a.7627.7627,0,0,0-.08106-.3457,1.95213,1.95213,0,0,0-.35644-.43652,2.93723,2.93723,0,0,0-1.08106-.64453,4.4,4.4,0,0,0-1.334-.1836,3.00132,3.00132,0,0,0-1.26465.27442,3.31575,3.31575,0,0,0-1.06933.78906,3.82215,3.82215,0,0,0-.74805,1.24609,4.58135,4.58135,0,0,0-.27539,1.624,4.669,4.669,0,0,0,.27539,1.63476,4.07994,4.07994,0,0,0,.75976,1.292,3.3879,3.3879,0,0,0,1.16114.85743,3.4824,3.4824,0,0,0,1.46093.30957,3.37423,3.37423,0,0,0,1.01172-.15039,3.58859,3.58859,0,0,0,.91993-.43653,4.07883,4.07883,0,0,0,.80468-.70117l.96582,1.12695A5.25505,5.25505,0,0,1,119.197,69.065a5.11132,5.11132,0,0,1-2.05859.41406A5.33752,5.33752,0,0,1,115.0232,69.067Z"/><path class="cls-4" d="M127.12085,58.78475h1.72461l-.06933,3.082-.207-.3457a3.71535,3.71535,0,0,1,.48339-1.26465,3.5584,3.5584,0,0,1,1.88575-1.50683,3.70515,3.70515,0,0,1,1.19628-.19532,3.98183,3.98183,0,0,1,1.5293.28809,3.64427,3.64427,0,0,1,1.25391.8623l-.73633,1.28809-.0918.207-.16113-.09277a1.41318,1.41318,0,0,0-.1377-.34473,1.55488,1.55488,0,0,0-.3916-.39062,2.47983,2.47983,0,0,0-.67773-.31055,2.80228,2.80228,0,0,0-.70215-.08106,3.23821,3.23821,0,0,0-1.14941.21778,3.0375,3.0375,0,0,0-1.04688.67578,3.2207,3.2207,0,0,0-.74707,1.167,4.65428,4.65428,0,0,0-.27637,1.69336v5.56152h-1.67871Z"/><path class="cls-4" d="M144.41675,69.47909a5.92955,5.92955,0,0,1-2.09277-.35352,4.45332,4.45332,0,0,1-1.62207-1.04,4.60408,4.60408,0,0,1-1.0459-1.70312,7.48812,7.48812,0,0,1,.01172-4.67383,5.02393,5.02393,0,0,1,1.03418-1.72559,4.39245,4.39245,0,0,1,1.541-1.0625,4.86109,4.86109,0,0,1,1.875-.36621,4.68478,4.68478,0,0,1,1.67871.29785,3.62713,3.62713,0,0,1,1.35743.90528,4.31777,4.31777,0,0,1,.9082,1.5459,6.64036,6.64036,0,0,1,.334,2.22168c0,.123-.0039.249-.01172.3789s-.01953.25586-.03417.37793h-7.47559a5.26089,5.26089,0,0,0,.34473,1.73828,3.42657,3.42657,0,0,0,.78222,1.20508,3.09648,3.09648,0,0,0,1.11524.69336,3.95286,3.95286,0,0,0,1.3457.22656,4.091,4.091,0,0,0,1.03516-.126,3.25857,3.25857,0,0,0,.9082-.3916,3.424,3.424,0,0,0,.77051-.65528l.91992.89746a4.42383,4.42383,0,0,1-1,.89649,4.1159,4.1159,0,0,1-1.23047.541A5.76991,5.76991,0,0,1,144.41675,69.47909Zm-3.47265-6.48535h5.77246a4.12969,4.12969,0,0,0-.19532-1.31348,3.03326,3.03326,0,0,0-.55175-1.00391,2.31951,2.31951,0,0,0-.85157-.63965,2.74761,2.74761,0,0,0-1.11523-.21679,2.98249,2.98249,0,0,0-1.0459.18262,2.60479,2.60479,0,0,0-.90918.582,3.469,3.469,0,0,0-.70117.99316A4.72923,4.72923,0,0,0,140.9441,62.99374Z"/><path class="cls-4" d="M156.81324,69.47909a4.1689,4.1689,0,0,1-2.75977-.81348,2.59245,2.59245,0,0,1-.96582-2.07422,2.85526,2.85526,0,0,1,.41406-1.52344,3.61219,3.61219,0,0,1,1.13867-1.14648,5.73184,5.73184,0,0,1,1.69043-.72168,8.07879,8.07879,0,0,1,2.04688-.252q.39111,0,.79394.01074c.26758.00879.55176.02344.85059.04687q.44825.0337.93164.10352l.0459,1.26465c-.27637-.0459-.55566-.08106-.83984-.10352-.28321-.02343-.56348-.042-.83887-.05761-.27637-.01465-.54492-.02344-.80567-.02344a7.84392,7.84392,0,0,0-1.51757.13769,4.21936,4.21936,0,0,0-1.19629.41211,2.08055,2.08055,0,0,0-.78223.708,1.92766,1.92766,0,0,0-.27539,1.05274,1.7496,1.7496,0,0,0,.17187.81152,1.36811,1.36811,0,0,0,.47168.52637,2.15558,2.15558,0,0,0,.70215.28613,4.01843,4.01843,0,0,0,.88477.09082,4.20815,4.20815,0,0,0,1.59863-.28516,3.22789,3.22789,0,0,0,1.19629-.832,3.606,3.606,0,0,0,.74707-1.34668,6.02875,6.02875,0,0,0,.25293-1.82422,6.37156,6.37156,0,0,0-.36719-2.418,2.33493,2.33493,0,0,0-1.09277-1.23144,4.46251,4.46251,0,0,0-3.34668-.07813,3.87376,3.87376,0,0,0-1.334.88575l-.80469-1.05762a4.77976,4.77976,0,0,1,1.70215-1.10449,5.69914,5.69914,0,0,1,2.04687-.36817,6.62874,6.62874,0,0,1,1.88574.25293,3.53038,3.53038,0,0,1,1.46094.83985,3.85605,3.85605,0,0,1,.94238,1.57519,7.8725,7.8725,0,0,1,.334,2.48438v5.58886h-1.794V67.61678a3.16948,3.16948,0,0,1-.72461.94239,3.23,3.23,0,0,1-.90918.56347,4.48581,4.48581,0,0,1-.98828.27637A6.16225,6.16225,0,0,1,156.81324,69.47909Z"/><path class="cls-4" d="M167.37085,58.78475h7.56641V60.1412h-7.56641Zm3.61035,10.34961a2.2855,2.2855,0,0,1-.98828-1.07129,5.47643,5.47643,0,0,1-.44922-1.832,21.86784,21.86784,0,0,1-.05761-2.62695l.27636-7.50977,1.72461-.208.23047-.02246.02344.16114a2.37316,2.37316,0,0,0-.19629.32226,1.82511,1.82511,0,0,0-.126.55274l-.207,2.60449.06836.415-.16015,3.80176a14.01227,14.01227,0,0,0,.09179,2.707,2.18242,2.18242,0,0,0,.5752,1.31445,1.633,1.633,0,0,0,1.10351.35644,2.92336,2.92336,0,0,0,1.34571-.29882,9.81379,9.81379,0,0,0,1.23047-.75879l.50586,1.31054a5.8314,5.8314,0,0,1-1.61036.85157,5.42782,5.42782,0,0,1-1.72461.27539A3.50063,3.50063,0,0,1,170.9812,69.13436Z"/><path class="cls-4" d="M185.31031,69.47909a4.557,4.557,0,0,1-2.51856-.70117,4.82463,4.82463,0,0,1-1.71387-1.93164,6.76352,6.76352,0,0,1,0-5.65821,4.82456,4.82456,0,0,1,1.71387-1.93164,4.868,4.868,0,0,1,5.03711,0,4.82441,4.82441,0,0,1,1.71387,1.93164,6.76342,6.76342,0,0,1,0,5.65821,4.82448,4.82448,0,0,1-1.71387,1.93164A4.55929,4.55929,0,0,1,185.31031,69.47909Zm0-1.37989a2.57256,2.57256,0,0,0,1.61035-.52832,3.59555,3.59555,0,0,0,1.09179-1.44921,5.75354,5.75354,0,0,0,0-4.23243,3.50958,3.50958,0,0,0-1.09179-1.4375,2.74577,2.74577,0,0,0-3.209,0,3.45835,3.45835,0,0,0-1.10351,1.4375,5.75354,5.75354,0,0,0,0,4.23243,3.54151,3.54151,0,0,0,1.10351,1.44921A2.58684,2.58684,0,0,0,185.31031,68.0992Z"/><path class="cls-4" d="M196.075,58.78475h1.72461l-.06933,3.082-.207-.3457a3.71516,3.71516,0,0,1,.4834-1.26465,3.55833,3.55833,0,0,1,1.88574-1.50683,3.70521,3.70521,0,0,1,1.19629-.19532,3.98182,3.98182,0,0,1,1.52929.28809,3.64418,3.64418,0,0,1,1.25391.8623l-.73633,1.28809-.0918.207-.16113-.09277a1.41355,1.41355,0,0,0-.13769-.34473,1.55513,1.55513,0,0,0-.39161-.39062,2.47983,2.47983,0,0,0-.67773-.31055,2.80228,2.80228,0,0,0-.70215-.08106,3.23821,3.23821,0,0,0-1.14941.21778,3.03759,3.03759,0,0,0-1.04688.67578,3.22084,3.22084,0,0,0-.74707,1.167,4.65429,4.65429,0,0,0-.27636,1.69336v5.56152H196.075Z"/></svg>