<svg id="Ebene_3" data-name="Ebene 3" xmlns="http://www.w3.org/2000/svg" xmlns:xlink="http://www.w3.org/1999/xlink" viewBox="0 0 209.37592 99.8442"><defs><style>.cls-1,.cls-3,.cls-5,.cls-6,.cls-7,.cls-8{fill:none;}.cls-2{clip-path:url(#clip-path);}.cls-3,.cls-5,.cls-6,.cls-7,.cls-8{stroke:#ff3b2d;}.cls-3{stroke-width:1.5px;}.cls-4{fill:#ff3b2d;}.cls-5,.cls-7,.cls-8{stroke-linecap:round;}.cls-5,.cls-6,.cls-7,.cls-8{stroke-linejoin:round;}.cls-5{stroke-width:0.28px;}.cls-6,.cls-7{stroke-width:1.121px;}.cls-8{stroke-width:0.561px;}</style><clipPath id="clip-path"><rect class="cls-1" x="19.37715" y="15.3851" width="209.306" height="65.977"/></clipPath></defs><g class="cls-2"><line class="cls-3" x1="97.43814" y1="19.76129" x2="97.43814" y2="80.3623"/><path class="cls-4" d="M46.87115,36.74979s-13.657-.636-17.76,10.491c0,0-3.986,12.109,9.395,18.799a31.43568,31.43568,0,0,0,27.091-.636,16.99087,16.99087,0,0,0,6.706-6.401,15.09924,15.09924,0,0,0-.666-16.328,27.83548,27.83548,0,0,0-6.358-5.723,53.35283,53.35283,0,0,0-5.15-3.179c-2.695-1.452-5.927-2.767-7.377-4.175,0,0-3.919-3.077-3.497-9.697,0,0-2.891,7.037,2.832,12.283a26.68,26.68,0,0,0,5.976,4.037c.16.083,1.876,1.081,3.274,2.003,3.527,2.324,8.393,5.404,8.423,11.719a12.409,12.409,0,0,1-2.573,7.991,16.07549,16.07549,0,0,1-7.185,5.721s-8.71,3.561-17.264.116c0,0-10.774-4.248-9.63-15.248a9.95713,9.95713,0,0,1,2.035-4.808,19.07247,19.07247,0,0,1,11.728-6.965"/><path class="cls-5" d="M46.87115,36.74979s-13.657-.636-17.76,10.491c0,0-3.986,12.109,9.395,18.799a31.43568,31.43568,0,0,0,27.091-.636,16.99087,16.99087,0,0,0,6.706-6.401,15.09924,15.09924,0,0,0-.666-16.328,27.83548,27.83548,0,0,0-6.358-5.723,53.35283,53.35283,0,0,0-5.15-3.179c-2.695-1.452-5.927-2.767-7.377-4.175,0,0-3.919-3.077-3.497-9.697,0,0-2.891,7.037,2.832,12.283a26.68,26.68,0,0,0,5.976,4.037c.16.083,1.876,1.081,3.274,2.003,3.527,2.324,8.393,5.404,8.423,11.719a12.409,12.409,0,0,1-2.573,7.991,16.07549,16.07549,0,0,1-7.185,5.721s-8.71,3.561-17.264.116c0,0-10.774-4.248-9.63-15.248a9.95713,9.95713,0,0,1,2.035-4.808A19.07247,19.07247,0,0,1,46.87115,36.74979Z"/></g><rect class="cls-4" x="54.27615" y="46.82509" width="8.853" height="1.705"/><rect class="cls-6" x="54.27615" y="46.82509" width="8.853" height="1.705"/><g class="cls-2"><path class="cls-4" d="M29.28855,37.07859s-9.392,5.143-9.348,15.292a17.195,17.195,0,0,0,10.892,15.866s-9.209-6.303-8.83-16.655c0,0-.01-7.663,7.286-14.503"/><path class="cls-7" d="M29.28855,37.07859s-9.392,5.143-9.348,15.292a17.195,17.195,0,0,0,10.892,15.866s-9.209-6.303-8.83-16.655C22.00255,51.58159,21.99255,43.91859,29.28855,37.07859Z"/><path class="cls-4" d="M74.07165,37.04839s9.254,5.387,8.944,15.531a17.19633,17.19633,0,0,1-11.303,15.576s9.371-6.06,9.263-16.419c0,0,.21-7.659-6.904-14.688"/><path class="cls-7" d="M74.07165,37.04839s9.254,5.387,8.944,15.531a17.19633,17.19633,0,0,1-11.303,15.576s9.371-6.06,9.263-16.419C80.97565,51.73639,81.18565,44.07739,74.07165,37.04839Z"/><path class="cls-4" d="M51.02285,58.00269s-5.86-.459-9.202-4.312c0,0-2.224-2.092-2.731-7.209-.092-.923-2.647,5.589,2.847,10.522a13.51164,13.51164,0,0,0,9.074,3.366s0-.233.012-2.367"/><path class="cls-8" d="M51.02285,58.00269s-5.86-.459-9.202-4.312c0,0-2.224-2.092-2.731-7.209-.092-.923-2.647,5.589,2.847,10.522a13.51164,13.51164,0,0,0,9.074,3.366S51.01085,60.1367,51.02285,58.00269Z"/></g><path class="cls-4" d="M116.19178,46.09725a10.51413,10.51413,0,0,1-1.98926-.17187,5.52333,5.52333,0,0,1-1.51758-.50489,2.54188,2.54188,0,0,1-.9668-.83691,2.11539,2.11539,0,0,1-.333-1.19238,2.34291,2.34291,0,0,1,.27636-1.14649,2.55058,2.55058,0,0,1,.72364-.83691,3.22322,3.22322,0,0,1,.97753-.49317l.69043.41309a3.5886,3.5886,0,0,0-.667.50391,1.51447,1.51447,0,0,0-.36816.584,2.41172,2.41172,0,0,0-.11524.79,1.14279,1.14279,0,0,0,.23047.69922,1.73028,1.73028,0,0,0,.65528.51465,4.12385,4.12385,0,0,0,1.03515.32129,7.605,7.605,0,0,0,1.3916.11425,5.59045,5.59045,0,0,0,1.71387-.21679,2.14442,2.14442,0,0,0,.97656-.59473,1.28668,1.28668,0,0,0,.32227-.8584,1.65183,1.65183,0,0,0-.1836-.82519,1.19044,1.19044,0,0,0-.75878-.48145,6.99457,6.99457,0,0,0-1.748-.16113,14.43785,14.43785,0,0,1-1.47266-.06836,6.35319,6.35319,0,0,1-1.19531-.22949,3.28754,3.28754,0,0,1-.88574-.40137,1.63091,1.63091,0,0,1-.541-.585,1.68076,1.68076,0,0,1-.18359-.80176,2.19135,2.19135,0,0,1,.333-1.14844,4.58278,4.58278,0,0,1,.90918-1.05664l.78222.6211a4.62051,4.62051,0,0,0-.36816.44726,1.398,1.398,0,0,0-.19531.36817,1.1682,1.1682,0,0,0-.05762.3789.72648.72648,0,0,0,.28711.59571,2.158,2.158,0,0,0,1.001.333,14.23785,14.23785,0,0,0,1.93165.10254,8.18753,8.18753,0,0,1,1.97753.19532,2.70305,2.70305,0,0,1,1.16211.56152,1.99658,1.99658,0,0,1,.56348.84863,3.3272,3.3272,0,0,1,.16113,1.05469,2.96021,2.96021,0,0,1-.24218,1.18066,2.75023,2.75023,0,0,1-.77051,1.00879,3.89548,3.89548,0,0,1-1.40235.71094A7.4956,7.4956,0,0,1,116.19178,46.09725Zm-.48243-7.498a3.798,3.798,0,0,1-1.95507-.48535,3.35312,3.35312,0,0,1-1.27637-1.30859,3.73687,3.73687,0,0,1-.44922-1.81641,3.67657,3.67657,0,0,1,.44922-1.80566,3.372,3.372,0,0,1,1.27637-1.29785,4.202,4.202,0,0,1,3.92089,0,3.39192,3.39192,0,0,1,1.26563,1.29785,3.67589,3.67589,0,0,1,.44824,1.80566,3.73616,3.73616,0,0,1-.44824,1.81641,3.37281,3.37281,0,0,1-1.26563,1.30859A3.78126,3.78126,0,0,1,115.70935,38.5992Zm0-1.37988a2.3106,2.3106,0,0,0,1.18457-.30176,2.219,2.219,0,0,0,.81641-.81347,2.25234,2.25234,0,0,0,0-2.24219,2.25293,2.25293,0,0,0-.81641-.80371,2.483,2.483,0,0,0-2.36914,0,2.253,2.253,0,0,0-.8164.80371,2.25234,2.25234,0,0,0,0,2.24219,2.219,2.219,0,0,0,.8164.81347A2.3056,2.3056,0,0,0,115.70935,37.21932Zm3.0586-3.84082-.64356-.75976a4.46142,4.46142,0,0,1,1.3916-.97657,3.66377,3.66377,0,0,1,1.7129-.24218l.207,1.35742a5.48874,5.48874,0,0,0-1.42578.0459A2.70615,2.70615,0,0,0,118.768,33.3785Z"/><path class="cls-4" d="M129.16346,42.32479a4.1689,4.1689,0,0,1-2.75977-.81348,2.59243,2.59243,0,0,1-.96582-2.07421,2.85512,2.85512,0,0,1,.41406-1.52344,3.61222,3.61222,0,0,1,1.13867-1.14649,5.7321,5.7321,0,0,1,1.69043-.72168,8.07925,8.07925,0,0,1,2.04688-.252q.39111,0,.79394.01074c.26758.00879.55176.02344.85059.04688q.44824.03369.93164.10351l.0459,1.26465c-.27637-.0459-.55567-.08105-.83984-.10351-.28321-.02344-.56348-.042-.83887-.05762-.27637-.01465-.54492-.02344-.80567-.02344a7.84388,7.84388,0,0,0-1.51757.1377,4.21863,4.21863,0,0,0-1.19629.41211,2.08045,2.08045,0,0,0-.78223.708,1.92766,1.92766,0,0,0-.27539,1.05274,1.7496,1.7496,0,0,0,.17187.81152,1.368,1.368,0,0,0,.47168.52637,2.15558,2.15558,0,0,0,.70215.28613,4.01843,4.01843,0,0,0,.88477.09082,4.20816,4.20816,0,0,0,1.59863-.28515,3.228,3.228,0,0,0,1.19629-.832,3.606,3.606,0,0,0,.74707-1.34667,6.02884,6.02884,0,0,0,.25293-1.82422,6.37152,6.37152,0,0,0-.36719-2.418,2.335,2.335,0,0,0-1.09277-1.23145,4.46257,4.46257,0,0,0-3.34668-.07812,3.87359,3.87359,0,0,0-1.334.88574l-.80469-1.05762a4.77981,4.77981,0,0,1,1.70215-1.10449A5.69913,5.69913,0,0,1,129.92322,31.4a6.62874,6.62874,0,0,1,1.88574.25293,3.53025,3.53025,0,0,1,1.46094.83984,3.85612,3.85612,0,0,1,.94238,1.57519,7.8725,7.8725,0,0,1,.334,2.48438V42.1412h-1.79395V40.46249a3.16956,3.16956,0,0,1-.72461.94238,3.23026,3.23026,0,0,1-.90918.56348,4.48633,4.48633,0,0,1-.98828.27636A6.16225,6.16225,0,0,1,129.16346,42.32479Z"/><path class="cls-4" d="M140.82556,31.63045h1.72461l-.06933,3.082-.207-.34571a3.71516,3.71516,0,0,1,.4834-1.26465A3.55833,3.55833,0,0,1,144.643,31.5953,3.70547,3.70547,0,0,1,145.83924,31.4a3.98181,3.98181,0,0,1,1.52929.28808,3.64407,3.64407,0,0,1,1.25391.86231l-.73633,1.28808-.0918.207-.16113-.09277a1.41371,1.41371,0,0,0-.13769-.34473,1.55522,1.55522,0,0,0-.3916-.39062,2.48,2.48,0,0,0-.67774-.31055,2.8023,2.8023,0,0,0-.70215-.08105,3.2382,3.2382,0,0,0-1.14941.21777,3.03774,3.03774,0,0,0-1.04688.67578,3.22092,3.22092,0,0,0-.74707,1.167,4.65429,4.65429,0,0,0-.27636,1.69336V42.1412h-1.67872Z"/><path class="cls-4" d="M153.70545,42.1412v-1.334h3.10449V28.18026h-2.9668v-1.334h4.64551V40.80721h3.082v1.334Z"/><path class="cls-4" d="M167.98767,42.1412v-1.334h2.69141V32.96444h-2.55273v-1.334h4.209v9.17676h2.46094v1.334Zm3.42676-12.71875a1.18039,1.18039,0,0,1-1.17285-1.17285,1.17742,1.17742,0,0,1,.334-.85157,1.1185,1.1185,0,0,1,.83887-.34472,1.21759,1.21759,0,0,1,1.19629,1.19629,1.11113,1.11113,0,0,1-.35644.82714A1.16775,1.16775,0,0,1,171.41443,29.42245Z"/><path class="cls-4" d="M183.92713,41.91268a4.98717,4.98717,0,0,1-1.668-1.14453,5.24737,5.24737,0,0,1-1.09277-1.72949,5.93631,5.93631,0,0,1-.39063-2.1875,5.87031,5.87031,0,0,1,.39063-2.16406,5.24732,5.24732,0,0,1,1.09277-1.7295,5.004,5.004,0,0,1,1.668-1.1455A5.27846,5.27846,0,0,1,186.0199,31.4a5.056,5.056,0,0,1,2.31152.51757,4.45125,4.45125,0,0,1,1.667,1.4375l-1.03516,1.01172-.16016.16114-.11523-.11426a.76274.76274,0,0,0-.08106-.34571,1.95235,1.95235,0,0,0-.35644-.43652,2.93728,2.93728,0,0,0-1.08106-.64453,4.4,4.4,0,0,0-1.334-.18359,3.00131,3.00131,0,0,0-1.26465.27441,3.3159,3.3159,0,0,0-1.06933.78906,3.8222,3.8222,0,0,0-.74805,1.2461,4.58152,4.58152,0,0,0-.27539,1.624,4.66924,4.66924,0,0,0,.27539,1.63477,4.08017,4.08017,0,0,0,.75976,1.292,3.388,3.388,0,0,0,1.16114.85742,3.48242,3.48242,0,0,0,1.46094.30957,3.3739,3.3739,0,0,0,1.01171-.15039,3.58856,3.58856,0,0,0,.91993-.43652,4.07921,4.07921,0,0,0,.80468-.70118l.96582,1.127a5.25494,5.25494,0,0,1-1.73632,1.24121,5.11123,5.11123,0,0,1-2.0586.41406A5.33735,5.33735,0,0,1,183.92713,41.91268Z"/><path class="cls-4" d="M114.31775,68.985a4.26425,4.26425,0,0,1-1.40332-1.02637,4.90247,4.90247,0,0,1-1-1.7334,7.34693,7.34693,0,0,1-.36816-2.44043,6.82793,6.82793,0,0,1,.39062-2.45117,4.74586,4.74586,0,0,1,1.03516-1.665,4.1175,4.1175,0,0,1,1.42578-.958,4.2863,4.2863,0,0,1,1.58691-.30859,3.60248,3.60248,0,0,1,1.32325.23047,3.3951,3.3951,0,0,1,1.03418.63183,2.87942,2.87942,0,0,1,.70214.95508V53.84823h1.74805v.16113a.60437.60437,0,0,0-.17285.29883,3.065,3.065,0,0,0-.03418.55176l.02246,12.65039q0,.41309.03516.8164a2.92009,2.92009,0,0,0,.19531.81641h-1.63281a2.595,2.595,0,0,1-.16114-.56738,4.64555,4.64555,0,0,1-.05761-.55567c-.00781-.18066-.01172-.36621-.01172-.55566a4.23182,4.23182,0,0,1-.78223.97754,3.27743,3.27743,0,0,1-2.2998.88476A3.85156,3.85156,0,0,1,114.31775,68.985Zm3.11621-1.41407a2.31212,2.31212,0,0,0,.85157-.86425,4.28137,4.28137,0,0,0,.4707-1.2959,7.97484,7.97484,0,0,0,.14941-1.58106,6.734,6.734,0,0,0-.29883-2.081,3.073,3.073,0,0,0-.94238-1.45508,2.50683,2.50683,0,0,0-1.65625-.53418,2.7842,2.7842,0,0,0-1.23047.26172,2.34276,2.34276,0,0,0-.89746.76172,3.64073,3.64073,0,0,0-.54,1.19336,6.07157,6.07157,0,0,0-.18457,1.55859,6.81,6.81,0,0,0,.34571,2.27344,3.346,3.346,0,0,0,1.01171,1.52441,2.49752,2.49752,0,0,0,1.63282.5459A2.52288,2.52288,0,0,0,117.434,67.57088Z"/><path class="cls-4" d="M130.56678,69.32674a5.92961,5.92961,0,0,1-2.09278-.35351,4.45341,4.45341,0,0,1-1.62207-1.04,4.604,4.604,0,0,1-1.0459-1.70313,7.48809,7.48809,0,0,1,.01172-4.67382,5.024,5.024,0,0,1,1.03418-1.72559,4.39227,4.39227,0,0,1,1.541-1.0625,4.86109,4.86109,0,0,1,1.875-.36621,4.68486,4.68486,0,0,1,1.67871.29785,3.62715,3.62715,0,0,1,1.35742.90527,4.3178,4.3178,0,0,1,.9082,1.5459,6.64043,6.64043,0,0,1,.334,2.22168c0,.12305-.00391.249-.01172.37891s-.01953.25586-.03418.37793h-7.47559a5.2612,5.2612,0,0,0,.34473,1.73828,3.42668,3.42668,0,0,0,.78223,1.20508,3.09658,3.09658,0,0,0,1.11523.69336,3.95318,3.95318,0,0,0,1.3457.22656,4.09047,4.09047,0,0,0,1.03516-.126,3.25786,3.25786,0,0,0,.9082-.3916,3.42352,3.42352,0,0,0,.77051-.65527l.91992.89746a4.42333,4.42333,0,0,1-1,.89648,4.11581,4.11581,0,0,1-1.23047.541A5.77036,5.77036,0,0,1,130.56678,69.32674Zm-3.47266-6.48535h5.77246a4.13,4.13,0,0,0-.19531-1.31347,3.03328,3.03328,0,0,0-.55176-1.00391,2.31918,2.31918,0,0,0-.85156-.63965,2.74763,2.74763,0,0,0-1.11524-.2168,2.9828,2.9828,0,0,0-1.0459.18262,2.6049,2.6049,0,0,0-.90917.582,3.46886,3.46886,0,0,0-.70118.99317A4.72925,4.72925,0,0,0,127.09412,62.84139Z"/><path class="cls-4" d="M138.96228,69.14315V58.63241h1.51758V59.69a3.16019,3.16019,0,0,1,.58692-.67872,2.59533,2.59533,0,0,1,.73632-.44824,2.17531,2.17531,0,0,1,.81641-.16113,1.871,1.871,0,0,1,1.50586.73633,1.90267,1.90267,0,0,1,.35644.80468,2.596,2.596,0,0,1,.56348-.80468,2.63148,2.63148,0,0,1,.82813-.541,2.53858,2.53858,0,0,1,.97754-.19531,1.94329,1.94329,0,0,1,.91992.207,1.82706,1.82706,0,0,1,.64453.5625,2.39891,2.39891,0,0,1,.36816.84863,4.03715,4.03715,0,0,1,.0918,1.06739v8.05566h-1.51856V61.70956a5.55525,5.55525,0,0,0-.126-1.40039.889.889,0,0,0-.35645-.56153,1.03727,1.03727,0,0,0-.50586-.12695,1.11688,1.11688,0,0,0-.8164.40234,3.37492,3.37492,0,0,0-.86328,2.19141v6.92871h-1.541V61.84628a4.12764,4.12764,0,0,0-.24121-1.74317,1.0438,1.0438,0,0,0-1.42578-.26367,1.9433,1.9433,0,0,0-.49414.48144,2.4573,2.4573,0,0,0-.36817.76856,3.68287,3.68287,0,0,0-.13867,1.05566v6.99805Z"/><path class="cls-4" d="M157.8451,69.32674a4.55693,4.55693,0,0,1-2.51856-.70117,4.82456,4.82456,0,0,1-1.71387-1.93164,6.76349,6.76349,0,0,1,0-5.6582,4.82456,4.82456,0,0,1,1.71387-1.93164,4.868,4.868,0,0,1,5.03711,0,4.82441,4.82441,0,0,1,1.71387,1.93164,6.76339,6.76339,0,0,1,0,5.6582,4.82441,4.82441,0,0,1-1.71387,1.93164A4.55921,4.55921,0,0,1,157.8451,69.32674Zm0-1.37988a2.57256,2.57256,0,0,0,1.61035-.52832,3.59565,3.59565,0,0,0,1.09179-1.44922,5.75351,5.75351,0,0,0,0-4.23242,3.50952,3.50952,0,0,0-1.09179-1.4375,2.74573,2.74573,0,0,0-3.209,0,3.45829,3.45829,0,0,0-1.10351,1.4375,5.75351,5.75351,0,0,0,0,4.23242,3.54161,3.54161,0,0,0,1.10351,1.44922A2.58684,2.58684,0,0,0,157.8451,67.94686Z"/><path class="cls-4" d="M167.55115,69.14315V58.63241h1.60938v1.88574a5.06152,5.06152,0,0,1,.96679-1.11523,4.30021,4.30021,0,0,1,1.21875-.73633,3.71959,3.71959,0,0,1,1.37989-.26465,2.86294,2.86294,0,0,1,1.56347.43652,2.97611,2.97611,0,0,1,1.10449,1.39942,6.54246,6.54246,0,0,1,.41407,2.54785v6.35742h-1.61035V62.83358a4.97169,4.97169,0,0,0-.25293-1.75488,1.89644,1.89644,0,0,0-.68946-.94043,1.76293,1.76293,0,0,0-.98926-.28711,2.71141,2.71141,0,0,0-1.06933.22949,3.4765,3.4765,0,0,0-1.001.6543,3.352,3.352,0,0,0-.74707,1.0205,3.07089,3.07089,0,0,0-.28808,1.35352v6.03418Z"/></svg>