<svg id="Ebene_3" data-name="Ebene 3" xmlns="http://www.w3.org/2000/svg" xmlns:xlink="http://www.w3.org/1999/xlink" viewBox="0 0 209.37592 99.8442"><defs><style>.cls-1,.cls-3,.cls-5,.cls-6,.cls-7,.cls-8{fill:none;}.cls-2{clip-path:url(#clip-path);}.cls-3,.cls-5,.cls-6,.cls-7,.cls-8{stroke:#9a90de;}.cls-3{stroke-width:1.5px;}.cls-4{fill:#9a90de;}.cls-5,.cls-7,.cls-8{stroke-linecap:round;}.cls-5,.cls-6,.cls-7,.cls-8{stroke-linejoin:round;}.cls-5{stroke-width:0.28px;}.cls-6,.cls-7{stroke-width:1.121px;}.cls-8{stroke-width:0.561px;}</style><clipPath id="clip-path"><rect class="cls-1" x="19.39985" y="15.42543" width="209.306" height="65.977"/></clipPath></defs><g class="cls-2"><line class="cls-3" x1="97.46085" y1="19.80162" x2="97.46085" y2="80.40263"/><path class="cls-4" d="M46.89385,36.79012s-13.657-.636-17.76,10.491c0,0-3.986,12.109,9.395,18.799a31.4357,31.4357,0,0,0,27.091-.636,16.99088,16.99088,0,0,0,6.706-6.401,15.09924,15.09924,0,0,0-.666-16.328,27.83541,27.83541,0,0,0-6.358-5.723,53.35283,53.35283,0,0,0-5.15-3.179c-2.695-1.452-5.927-2.767-7.377-4.175,0,0-3.919-3.077-3.497-9.697,0,0-2.891,7.037,2.832,12.283a26.67994,26.67994,0,0,0,5.976,4.037c.16.083,1.876,1.081,3.274,2.003,3.527,2.324,8.393,5.404,8.423,11.719a12.409,12.409,0,0,1-2.573,7.991,16.07549,16.07549,0,0,1-7.185,5.721s-8.71,3.561-17.264.116c0,0-10.774-4.248-9.63-15.248a9.95713,9.95713,0,0,1,2.035-4.808,19.07247,19.07247,0,0,1,11.728-6.965"/><path class="cls-5" d="M46.89385,36.79012s-13.657-.636-17.76,10.491c0,0-3.986,12.109,9.395,18.799a31.4357,31.4357,0,0,0,27.091-.636,16.99088,16.99088,0,0,0,6.706-6.401,15.09924,15.09924,0,0,0-.666-16.328,27.83541,27.83541,0,0,0-6.358-5.723,53.35283,53.35283,0,0,0-5.15-3.179c-2.695-1.452-5.927-2.767-7.377-4.175,0,0-3.919-3.077-3.497-9.697,0,0-2.891,7.037,2.832,12.283a26.67994,26.67994,0,0,0,5.976,4.037c.16.083,1.876,1.081,3.274,2.003,3.527,2.324,8.393,5.404,8.423,11.719a12.409,12.409,0,0,1-2.573,7.991,16.07549,16.07549,0,0,1-7.185,5.721s-8.71,3.561-17.264.116c0,0-10.774-4.248-9.63-15.248a9.95713,9.95713,0,0,1,2.035-4.808A19.07247,19.07247,0,0,1,46.89385,36.79012Z"/></g><rect class="cls-4" x="54.29885" y="46.86642" width="8.853" height="1.705"/><rect class="cls-6" x="54.29885" y="46.86642" width="8.853" height="1.705"/><g class="cls-2"><path class="cls-4" d="M29.31125,37.11892s-9.392,5.143-9.348,15.292a17.195,17.195,0,0,0,10.892,15.866s-9.209-6.303-8.83-16.655c0,0-.01-7.663,7.286-14.503"/><path class="cls-7" d="M29.31125,37.11892s-9.392,5.143-9.348,15.292a17.195,17.195,0,0,0,10.892,15.866s-9.209-6.303-8.83-16.655C22.02525,51.62192,22.01525,43.95892,29.31125,37.11892Z"/><path class="cls-4" d="M74.09435,37.08872s9.254,5.387,8.944,15.531a17.19633,17.19633,0,0,1-11.303,15.576s9.371-6.06,9.263-16.419c0,0,.21-7.659-6.904-14.688"/><path class="cls-7" d="M74.09435,37.08872s9.254,5.387,8.944,15.531a17.19633,17.19633,0,0,1-11.303,15.576s9.371-6.06,9.263-16.419C80.99835,51.77672,81.20835,44.11772,74.09435,37.08872Z"/><path class="cls-4" d="M51.04555,58.044s-5.86-.459-9.202-4.312c0,0-2.224-2.092-2.731-7.209-.092-.923-2.647,5.589,2.847,10.522a13.51161,13.51161,0,0,0,9.074,3.366s0-.233.012-2.367"/><path class="cls-8" d="M51.04555,58.044s-5.86-.459-9.202-4.312c0,0-2.224-2.092-2.731-7.209-.092-.923-2.647,5.589,2.847,10.522a13.51161,13.51161,0,0,0,9.074,3.366S51.03356,60.178,51.04555,58.044Z"/></g><path class="cls-4" d="M116.21418,46.13778a10.51326,10.51326,0,0,1-1.98926-.17188,5.523,5.523,0,0,1-1.51758-.50488,2.54188,2.54188,0,0,1-.9668-.83691,2.1154,2.1154,0,0,1-.333-1.19239,2.3429,2.3429,0,0,1,.27636-1.14648,2.55048,2.55048,0,0,1,.72364-.83691,3.22276,3.22276,0,0,1,.97753-.49317l.69043.41309a3.589,3.589,0,0,0-.667.5039,1.5145,1.5145,0,0,0-.36816.584,2.41172,2.41172,0,0,0-.11524.79,1.14281,1.14281,0,0,0,.23047.69922,1.73017,1.73017,0,0,0,.65528.51464,4.123,4.123,0,0,0,1.03515.32129,7.604,7.604,0,0,0,1.3916.11426,5.5901,5.5901,0,0,0,1.71387-.2168,2.14441,2.14441,0,0,0,.97656-.59472,1.2867,1.2867,0,0,0,.32227-.8584,1.6519,1.6519,0,0,0-.1836-.8252,1.19043,1.19043,0,0,0-.75878-.48144,6.99457,6.99457,0,0,0-1.748-.16113,14.43785,14.43785,0,0,1-1.47266-.06836,6.35236,6.35236,0,0,1-1.19531-.2295,3.28784,3.28784,0,0,1-.88574-.40136,1.63091,1.63091,0,0,1-.541-.585,1.68082,1.68082,0,0,1-.18359-.80176,2.19135,2.19135,0,0,1,.333-1.14844,4.58237,4.58237,0,0,1,.90918-1.05664l.78222.62109a4.62048,4.62048,0,0,0-.36816.44727,1.398,1.398,0,0,0-.19531.36816,1.16826,1.16826,0,0,0-.05762.37891.72644.72644,0,0,0,.28711.5957,2.158,2.158,0,0,0,1.001.333,14.23785,14.23785,0,0,0,1.93165.10254,8.1881,8.1881,0,0,1,1.97753.19531,2.70317,2.70317,0,0,1,1.16211.56153,1.99658,1.99658,0,0,1,.56348.84863,3.32716,3.32716,0,0,1,.16113,1.05469,2.96021,2.96021,0,0,1-.24218,1.18066,2.75031,2.75031,0,0,1-.77051,1.00879,3.89548,3.89548,0,0,1-1.40235.71094A7.4956,7.4956,0,0,1,116.21418,46.13778Zm-.48243-7.498a3.7981,3.7981,0,0,1-1.95507-.48535,3.35318,3.35318,0,0,1-1.27637-1.30859,3.73687,3.73687,0,0,1-.44922-1.81641,3.67657,3.67657,0,0,1,.44922-1.80566,3.37206,3.37206,0,0,1,1.27637-1.29786,4.202,4.202,0,0,1,3.92089,0,3.39194,3.39194,0,0,1,1.26563,1.29786,3.67589,3.67589,0,0,1,.44824,1.80566,3.73616,3.73616,0,0,1-.44824,1.81641,3.37288,3.37288,0,0,1-1.26563,1.30859A3.78135,3.78135,0,0,1,115.73175,38.63973Zm0-1.37988a2.3107,2.3107,0,0,0,1.18457-.30176,2.21893,2.21893,0,0,0,.81641-.81348,2.25232,2.25232,0,0,0,0-2.24218,2.25293,2.25293,0,0,0-.81641-.80371,2.483,2.483,0,0,0-2.36914,0,2.253,2.253,0,0,0-.8164.80371,2.25232,2.25232,0,0,0,0,2.24218,2.219,2.219,0,0,0,.8164.81348A2.3057,2.3057,0,0,0,115.73175,37.25985Zm3.0586-3.84082-.64356-.75977a4.46155,4.46155,0,0,1,1.3916-.97656,3.66376,3.66376,0,0,1,1.7129-.24219l.207,1.35743a5.48919,5.48919,0,0,0-1.42578.04589A2.70627,2.70627,0,0,0,118.79035,33.419Z"/><path class="cls-4" d="M129.18586,42.36532a4.1689,4.1689,0,0,1-2.75977-.81348,2.59245,2.59245,0,0,1-.96582-2.07422,2.85511,2.85511,0,0,1,.41406-1.52343A3.61211,3.61211,0,0,1,127.013,36.8077a5.73184,5.73184,0,0,1,1.69043-.72168,8.07879,8.07879,0,0,1,2.04688-.252q.39111,0,.79394.01074c.26758.00879.55176.02344.85059.04688q.44825.03369.93164.10351l.0459,1.26465c-.27637-.0459-.55567-.08106-.83984-.10352-.28321-.02343-.56348-.042-.83887-.05761-.27637-.01465-.54492-.02344-.80567-.02344a7.84392,7.84392,0,0,0-1.51757.13769,4.21925,4.21925,0,0,0-1.19629.41211,2.08055,2.08055,0,0,0-.78223.708,1.92766,1.92766,0,0,0-.27539,1.05274,1.7496,1.7496,0,0,0,.17187.81152,1.36811,1.36811,0,0,0,.47168.52637,2.15558,2.15558,0,0,0,.70215.28613,4.01843,4.01843,0,0,0,.88477.09082,4.20815,4.20815,0,0,0,1.59863-.28516,3.22789,3.22789,0,0,0,1.19629-.832,3.606,3.606,0,0,0,.74707-1.34668,6.02875,6.02875,0,0,0,.25293-1.82422,6.37156,6.37156,0,0,0-.36719-2.418,2.33493,2.33493,0,0,0-1.09277-1.23144,4.46264,4.46264,0,0,0-3.34668-.07813,3.87376,3.87376,0,0,0-1.334.88575l-.80469-1.05762a4.77968,4.77968,0,0,1,1.70215-1.10449,5.69914,5.69914,0,0,1,2.04687-.36817,6.62874,6.62874,0,0,1,1.88574.25293,3.53038,3.53038,0,0,1,1.46094.83985,3.85605,3.85605,0,0,1,.94238,1.57519,7.8725,7.8725,0,0,1,.334,2.48438v5.58886h-1.79395V40.503a3.16948,3.16948,0,0,1-.72461.94239,3.23,3.23,0,0,1-.90918.56347,4.48581,4.48581,0,0,1-.98828.27637A6.16225,6.16225,0,0,1,129.18586,42.36532Z"/><path class="cls-4" d="M140.848,31.671h1.72461l-.06933,3.082-.207-.3457a3.71516,3.71516,0,0,1,.4834-1.26465,3.55833,3.55833,0,0,1,1.88574-1.50683,3.70521,3.70521,0,0,1,1.19629-.19532,3.98182,3.98182,0,0,1,1.52929.28809,3.64418,3.64418,0,0,1,1.25391.8623l-.73633,1.28809-.0918.207-.16113-.09277a1.41355,1.41355,0,0,0-.13769-.34473,1.55522,1.55522,0,0,0-.3916-.39062,2.48,2.48,0,0,0-.67774-.31055,2.80228,2.80228,0,0,0-.70215-.08106,3.23821,3.23821,0,0,0-1.14941.21778,3.03774,3.03774,0,0,0-1.04688.67578,3.22092,3.22092,0,0,0-.74707,1.167,4.65429,4.65429,0,0,0-.27636,1.69336v5.56152H140.848Z"/><path class="cls-4" d="M153.72785,42.18172v-1.334h3.10449v-12.627h-2.9668v-1.334h4.64551V40.84774h3.082v1.334Z"/><path class="cls-4" d="M168.01007,42.18172v-1.334h2.69141V33.005h-2.55273V31.671h4.209v9.17676h2.46094v1.334ZM171.43683,29.463a1.18038,1.18038,0,0,1-1.17285-1.17285,1.17741,1.17741,0,0,1,.334-.85156,1.11851,1.11851,0,0,1,.83887-.34473,1.21761,1.21761,0,0,1,1.19629,1.19629,1.11114,1.11114,0,0,1-.35644.82715A1.16774,1.16774,0,0,1,171.43683,29.463Z"/><path class="cls-4" d="M183.94953,41.95321a4.98732,4.98732,0,0,1-1.668-1.14453,5.24737,5.24737,0,0,1-1.09277-1.72949,5.93635,5.93635,0,0,1-.39063-2.1875,5.87036,5.87036,0,0,1,.39063-2.16407,5.24737,5.24737,0,0,1,1.09277-1.72949,5.004,5.004,0,0,1,1.668-1.14551,5.27864,5.27864,0,0,1,2.09277-.41211,5.05586,5.05586,0,0,1,2.31152.51758,4.45125,4.45125,0,0,1,1.667,1.4375l-1.03516,1.01172-.16016.16113-.11523-.11425a.76271.76271,0,0,0-.08106-.34571,1.95213,1.95213,0,0,0-.35644-.43652,2.93715,2.93715,0,0,0-1.08106-.64453,4.4,4.4,0,0,0-1.334-.1836,3.00132,3.00132,0,0,0-1.26465.27442,3.31575,3.31575,0,0,0-1.06933.78906,3.82215,3.82215,0,0,0-.74805,1.24609,4.58162,4.58162,0,0,0-.27539,1.624,4.66919,4.66919,0,0,0,.27539,1.63476,4.0801,4.0801,0,0,0,.75976,1.292,3.388,3.388,0,0,0,1.16114.85742,3.48242,3.48242,0,0,0,1.46094.30957,3.37422,3.37422,0,0,0,1.01171-.15039,3.58859,3.58859,0,0,0,.91993-.43653,4.07883,4.07883,0,0,0,.80468-.70117l.96582,1.127a5.25512,5.25512,0,0,1-1.73632,1.24122,5.1114,5.1114,0,0,1-2.0586.41406A5.33752,5.33752,0,0,1,183.94953,41.95321Z"/><path class="cls-4" d="M111.91339,73.024V58.67245h1.67872v2.07031a3.37422,3.37422,0,0,1,.7246-1.31055,2.89875,2.89875,0,0,1,1.1045-.748,3.81615,3.81615,0,0,1,1.36816-.24219,4.29085,4.29085,0,0,1,1.668.332,3.97045,3.97045,0,0,1,1.40234.99219,4.80551,4.80551,0,0,1,.9668,1.66406,7.97269,7.97269,0,0,1-.02344,4.78906,5.185,5.185,0,0,1-1.01172,1.7461,4.29025,4.29025,0,0,1-1.42675,1.04882,3.93367,3.93367,0,0,1-1.6211.35352,3.82916,3.82916,0,0,1-1.207-.19531,3.51434,3.51434,0,0,1-1.07031-.57617,4.40792,4.40792,0,0,1-.85059-.88477V73.024Zm4.55372-5.12891a3.12512,3.12512,0,0,0,1.081-.19336,2.56207,2.56207,0,0,0,.9668-.64648,3.17657,3.17657,0,0,0,.68945-1.24023,6.411,6.411,0,0,0,.25293-1.94532,6.1821,6.1821,0,0,0-.32227-2.125,2.97606,2.97606,0,0,0-.93066-1.35351,2.56733,2.56733,0,0,0-1.48437-.52344,2.68453,2.68453,0,0,0-1.207.18359,2.52272,2.52272,0,0,0-1.001.75,3.68236,3.68236,0,0,0-.67774,1.375,7.62159,7.62159,0,0,0-.24218,2.0586,6.77985,6.77985,0,0,0,.16113,1.31836,3.81413,3.81413,0,0,0,.3916,1.03515,2.58773,2.58773,0,0,0,.59766.72852,2.5138,2.5138,0,0,0,.78222.43164A2.94565,2.94565,0,0,0,116.46711,67.8951Z"/><path class="cls-4" d="M127.07062,58.67245h1.72461l-.06934,3.082-.207-.3457a3.70256,3.70256,0,0,1,.4834-1.26368,3.5664,3.5664,0,0,1,1.88574-1.50781,3.732,3.732,0,0,1,1.19629-.19531,3.96393,3.96393,0,0,1,1.5293.28906,3.64154,3.64154,0,0,1,1.25391.86133l-.73633,1.28906-.0918.207-.16113-.09375a1.42194,1.42194,0,0,0-.1377-.34375,1.52347,1.52347,0,0,0-.3916-.39062,2.42283,2.42283,0,0,0-.67773-.31055,2.75557,2.75557,0,0,0-.70215-.082,3.23979,3.23979,0,0,0-1.14942.21875,3.00946,3.00946,0,0,0-1.04687.67578,3.21654,3.21654,0,0,0-.74707,1.166,4.65425,4.65425,0,0,0-.27637,1.69336v5.5625h-1.67871Z"/><path class="cls-4" d="M143.86066,69.36776a4.56506,4.56506,0,0,1-2.51855-.70117,4.8309,4.8309,0,0,1-1.71387-1.93164,6.76343,6.76343,0,0,1,0-5.65821,4.818,4.818,0,0,1,1.71387-1.93164,4.86224,4.86224,0,0,1,5.0371,0,4.818,4.818,0,0,1,1.71387,1.93164,6.76343,6.76343,0,0,1,0,5.65821,4.8309,4.8309,0,0,1-1.71387,1.93164A4.56735,4.56735,0,0,1,143.86066,69.36776Zm0-1.38086a2.57769,2.57769,0,0,0,1.61035-.52734,3.60248,3.60248,0,0,0,1.0918-1.44922,5.75351,5.75351,0,0,0,0-4.23242,3.50955,3.50955,0,0,0-1.0918-1.4375,2.74571,2.74571,0,0,0-3.209,0,3.45816,3.45816,0,0,0-1.10352,1.4375,5.75351,5.75351,0,0,0,0,4.23242,3.548,3.548,0,0,0,1.10352,1.44922A2.592,2.592,0,0,0,143.86066,67.9869Z"/><path class="cls-4" d="M152.99152,69.18417l3.70312-5.33594-3.63378-5.17578h1.8164l2.73731,3.88672,2.62207-3.88672h1.70215l-3.4043,5.10547,3.86426,5.40625H160.512l-2.89746-4.09375-2.73731,4.09375Z"/><path class="cls-4" d="M167.28546,72.90878a3.137,3.137,0,0,1-1.06933-.666l.71289-1.127.13867-.207.1377.09179a.69523.69523,0,0,0,.16113.31055,2.38031,2.38031,0,0,0,.43652.334,2.7781,2.7781,0,0,0,.4375.10352,3.1812,3.1812,0,0,0,.48242.0332,1.77665,1.77665,0,0,0,1.04688-.29687,2.48808,2.48808,0,0,0,.74707-.916,9.88958,9.88958,0,0,0,.62109-1.55664l2.001-6.166q.34571-1.0547.667-2.0879a11,11,0,0,0,.4375-2.08593h1.65625a13.81614,13.81614,0,0,1-.50683,2.13281q-.34425,1.07813-.73535,2.1543l-2.62208,7.38281a4.472,4.472,0,0,1-1.415,2.166,3.27133,3.27133,0,0,1-1.98926.63086A3.7612,3.7612,0,0,1,167.28546,72.90878Zm-.51757-14.23633h1.72558l3.40332,8.73633-.73535,2.03906Z"/></svg>