<svg id="Ebene_3" data-name="Ebene 3" xmlns="http://www.w3.org/2000/svg" xmlns:xlink="http://www.w3.org/1999/xlink" viewBox="0 0 209.47235 99.8442"><defs><style>.cls-1,.cls-3,.cls-5,.cls-6,.cls-7,.cls-8{fill:none;}.cls-2{clip-path:url(#clip-path);}.cls-3,.cls-5,.cls-6,.cls-7,.cls-8{stroke:#4169e1;}.cls-3{stroke-width:1.5px;}.cls-4{fill:#4169e1;}.cls-5,.cls-7,.cls-8{stroke-linecap:round;}.cls-5,.cls-6,.cls-7,.cls-8{stroke-linejoin:round;}.cls-5{stroke-width:0.28px;}.cls-6,.cls-7{stroke-width:1.121px;}.cls-8{stroke-width:0.561px;}</style><clipPath id="clip-path"><rect class="cls-1" x="19.08319" y="14.9336" width="209.306" height="65.977"/></clipPath></defs><g class="cls-2"><line class="cls-3" x1="97.14418" y1="19.31" x2="97.14418" y2="79.911"/><path class="cls-4" d="M46.57719,36.2983s-13.657-.636-17.76,10.491c0,0-3.986,12.109,9.395,18.799a31.43567,31.43567,0,0,0,27.091-.636,16.99081,16.99081,0,0,0,6.706-6.401,15.09922,15.09922,0,0,0-.666-16.328,27.83548,27.83548,0,0,0-6.358-5.723,53.35379,53.35379,0,0,0-5.15-3.179c-2.695-1.452-5.927-2.767-7.377-4.175,0,0-3.919-3.077-3.497-9.697,0,0-2.891,7.037,2.832,12.283a26.67974,26.67974,0,0,0,5.976,4.037c.16.083,1.876,1.081,3.274,2.003,3.527,2.324,8.393,5.404,8.423,11.719a12.40892,12.40892,0,0,1-2.573,7.991,16.07551,16.07551,0,0,1-7.185,5.721s-8.71,3.561-17.264.116c0,0-10.774-4.248-9.63-15.248a9.957,9.957,0,0,1,2.035-4.808,19.07244,19.07244,0,0,1,11.728-6.965"/><path class="cls-5" d="M46.57719,36.2983s-13.657-.636-17.76,10.491c0,0-3.986,12.109,9.395,18.799a31.43567,31.43567,0,0,0,27.091-.636,16.99081,16.99081,0,0,0,6.706-6.401,15.09922,15.09922,0,0,0-.666-16.328,27.83548,27.83548,0,0,0-6.358-5.723,53.35379,53.35379,0,0,0-5.15-3.179c-2.695-1.452-5.927-2.767-7.377-4.175,0,0-3.919-3.077-3.497-9.697,0,0-2.891,7.037,2.832,12.283a26.67974,26.67974,0,0,0,5.976,4.037c.16.083,1.876,1.081,3.274,2.003,3.527,2.324,8.393,5.404,8.423,11.719a12.40892,12.40892,0,0,1-2.573,7.991,16.07551,16.07551,0,0,1-7.185,5.721s-8.71,3.561-17.264.116c0,0-10.774-4.248-9.63-15.248a9.957,9.957,0,0,1,2.035-4.808A19.07244,19.07244,0,0,1,46.57719,36.2983Z"/></g><rect class="cls-4" x="53.98218" y="46.3746" width="8.853" height="1.705"/><rect class="cls-6" x="53.98218" y="46.3746" width="8.853" height="1.705"/><g class="cls-2"><path class="cls-4" d="M28.99459,36.6271s-9.392,5.143-9.348,15.292a17.195,17.195,0,0,0,10.892,15.866s-9.209-6.303-8.83-16.655c0,0-.01-7.663,7.286-14.503"/><path class="cls-7" d="M28.99459,36.6271s-9.392,5.143-9.348,15.292a17.195,17.195,0,0,0,10.892,15.866s-9.209-6.303-8.83-16.655C21.70859,51.1301,21.69859,43.4671,28.99459,36.6271Z"/><path class="cls-4" d="M73.77769,36.5969s9.254,5.387,8.944,15.531a17.19635,17.19635,0,0,1-11.303,15.576s9.371-6.06,9.263-16.419c0,0,.21-7.659-6.904-14.688"/><path class="cls-7" d="M73.77769,36.5969s9.254,5.387,8.944,15.531a17.19635,17.19635,0,0,1-11.303,15.576s9.371-6.06,9.263-16.419C80.68168,51.2849,80.89168,43.6259,73.77769,36.5969Z"/><path class="cls-4" d="M50.72889,57.5522s-5.86-.459-9.202-4.312c0,0-2.224-2.092-2.731-7.209-.092-.923-2.647,5.589,2.847,10.522a13.5116,13.5116,0,0,0,9.074,3.366s0-.233.012-2.367"/><path class="cls-8" d="M50.72889,57.5522s-5.86-.459-9.202-4.312c0,0-2.224-2.092-2.731-7.209-.092-.923-2.647,5.589,2.847,10.522a13.5116,13.5116,0,0,0,9.074,3.366S50.71689,59.6862,50.72889,57.5522Z"/></g><path class="cls-4" d="M115.89793,45.64608a10.51341,10.51341,0,0,1-1.98926-.17188,5.523,5.523,0,0,1-1.51758-.50488,2.54185,2.54185,0,0,1-.96679-.83691,2.1154,2.1154,0,0,1-.333-1.19238,2.34292,2.34292,0,0,1,.27637-1.14649,2.55033,2.55033,0,0,1,.72363-.83691,3.2227,3.2227,0,0,1,.97754-.49317l.69043.41309a3.58836,3.58836,0,0,0-.667.5039,1.51441,1.51441,0,0,0-.36817.584,2.41173,2.41173,0,0,0-.11523.79,1.14292,1.14292,0,0,0,.23045.69922,1.73048,1.73048,0,0,0,.65529.51465,4.12354,4.12354,0,0,0,1.03516.32128,7.60393,7.60393,0,0,0,1.3916.11426,5.59045,5.59045,0,0,0,1.71387-.21679,2.14448,2.14448,0,0,0,.97656-.59473,1.28672,1.28672,0,0,0,.32226-.8584,1.65194,1.65194,0,0,0-.18359-.82519,1.19049,1.19049,0,0,0-.75879-.48145,6.99457,6.99457,0,0,0-1.74805-.16113,14.4375,14.4375,0,0,1-1.47265-.06836,6.35288,6.35288,0,0,1-1.19531-.22949,3.28837,3.28837,0,0,1-.88575-.40137,1.63079,1.63079,0,0,1-.541-.585,1.68079,1.68079,0,0,1-.1836-.80176,2.19135,2.19135,0,0,1,.333-1.14844,4.58282,4.58282,0,0,1,.90918-1.05664l.78223.6211a4.61809,4.61809,0,0,0-.36817.44726,1.39769,1.39769,0,0,0-.19531.36816,1.16857,1.16857,0,0,0-.05762.37891.72642.72642,0,0,0,.28711.5957,2.158,2.158,0,0,0,1.001.333,14.23769,14.23769,0,0,0,1.93164.10254,8.18825,8.18825,0,0,1,1.97754.19531,2.70323,2.70323,0,0,1,1.16211.56153,1.99667,1.99667,0,0,1,.56348.84863,3.32744,3.32744,0,0,1,.16113,1.05469,2.96022,2.96022,0,0,1-.24219,1.18066,2.75021,2.75021,0,0,1-.77051,1.00879,3.89551,3.89551,0,0,1-1.40234.71094A7.49572,7.49572,0,0,1,115.89793,45.64608Zm-.48242-7.498a3.79816,3.79816,0,0,1-1.95508-.48535,3.35312,3.35312,0,0,1-1.27637-1.30859,3.737,3.737,0,0,1-.44922-1.81641,3.67668,3.67668,0,0,1,.44922-1.80566,3.372,3.372,0,0,1,1.27637-1.29785,4.20195,4.20195,0,0,1,3.9209,0A3.39189,3.39189,0,0,1,118.647,32.732a3.6759,3.6759,0,0,1,.44825,1.80566,3.73617,3.73617,0,0,1-.44825,1.81641,3.37279,3.37279,0,0,1-1.26562,1.30859A3.7814,3.7814,0,0,1,115.41551,38.148Zm0-1.37988a2.31073,2.31073,0,0,0,1.18457-.30176,2.219,2.219,0,0,0,.81641-.81347,2.2524,2.2524,0,0,0,0-2.24219,2.25293,2.25293,0,0,0-.81641-.80371,2.483,2.483,0,0,0-2.36914,0,2.25293,2.25293,0,0,0-.81641.80371,2.25234,2.25234,0,0,0,0,2.24219,2.219,2.219,0,0,0,.81641.81347A2.3057,2.3057,0,0,0,115.41551,36.76815Zm3.05859-3.84082-.64355-.75977a4.46132,4.46132,0,0,1,1.3916-.97656,3.66383,3.66383,0,0,1,1.71289-.24219l.207,1.35743a5.48921,5.48921,0,0,0-1.42578.04589A2.70636,2.70636,0,0,0,118.4741,32.92733Z"/><path class="cls-4" d="M128.86961,41.87362a4.16894,4.16894,0,0,1-2.75977-.81348,2.59245,2.59245,0,0,1-.96582-2.07422,2.85512,2.85512,0,0,1,.41407-1.52343,3.61191,3.61191,0,0,1,1.13867-1.14649,5.732,5.732,0,0,1,1.69043-.72168,8.07866,8.07866,0,0,1,2.04687-.252q.39112,0,.794.01074c.26758.00879.55176.02344.85058.04688q.44825.03369.93165.10351l.04589,1.26465c-.27636-.0459-.55566-.081-.83984-.10352-.2832-.02343-.56348-.042-.83887-.05761-.27636-.01465-.54492-.02344-.80566-.02344a7.84313,7.84313,0,0,0-1.51758.1377,4.21916,4.21916,0,0,0-1.19629.4121,2.0806,2.0806,0,0,0-.78222.708,1.92757,1.92757,0,0,0-.2754,1.05274,1.74948,1.74948,0,0,0,.17188.81152,1.368,1.368,0,0,0,.47168.52637,2.15548,2.15548,0,0,0,.70215.28613,4.01833,4.01833,0,0,0,.88476.09082,4.20821,4.20821,0,0,0,1.59864-.28516,3.22789,3.22789,0,0,0,1.19629-.832,3.60615,3.60615,0,0,0,.74707-1.34668,6.02906,6.02906,0,0,0,.25293-1.82422,6.37166,6.37166,0,0,0-.36719-2.418,2.33494,2.33494,0,0,0-1.09278-1.23145,4.46257,4.46257,0,0,0-3.34668-.07812,3.87368,3.87368,0,0,0-1.334.88574l-.80469-1.05762A4.78,4.78,0,0,1,127.5825,31.317a5.69923,5.69923,0,0,1,2.04688-.36817,6.6291,6.6291,0,0,1,1.88574.25293,3.53044,3.53044,0,0,1,1.46094.83985,3.85616,3.85616,0,0,1,.94238,1.57519,7.87282,7.87282,0,0,1,.334,2.48438V41.69h-1.79394V40.01131a3.16981,3.16981,0,0,1-.72461.94239,3.23013,3.23013,0,0,1-.90918.56347,4.486,4.486,0,0,1-.98828.27637A6.16238,6.16238,0,0,1,128.86961,41.87362Z"/><path class="cls-4" d="M140.53172,31.17928h1.72461l-.06934,3.082-.207-.3457a3.71557,3.71557,0,0,1,.4834-1.26465,3.55842,3.55842,0,0,1,1.88574-1.50683,3.70525,3.70525,0,0,1,1.19629-.19532,3.98183,3.98183,0,0,1,1.5293.28809,3.64424,3.64424,0,0,1,1.2539.8623l-.73632,1.28809-.0918.207-.16115-.09277a1.41233,1.41233,0,0,0-.13768-.34473,1.55488,1.55488,0,0,0-.3916-.39062,2.48023,2.48023,0,0,0-.67773-.31055,2.80235,2.80235,0,0,0-.70215-.081,3.23825,3.23825,0,0,0-1.14942.21777,3.0376,3.0376,0,0,0-1.04687.67578,3.22079,3.22079,0,0,0-.74707,1.167,4.65428,4.65428,0,0,0-.27637,1.69336V41.69h-1.67871Z"/><path class="cls-4" d="M153.4116,41.69V40.356h3.10449v-12.627H153.5493v-1.334h4.64551V40.356h3.082V41.69Z"/><path class="cls-4" d="M167.69383,41.69V40.356h2.69141V32.51327H167.8325v-1.334h4.209V40.356h2.46093V41.69Zm3.42676-12.71875a1.18039,1.18039,0,0,1-1.17285-1.17286,1.17737,1.17737,0,0,1,.334-.85156,1.11849,1.11849,0,0,1,.83887-.34473,1.21762,1.21762,0,0,1,1.19629,1.19629,1.11111,1.11111,0,0,1-.35645.82715A1.16772,1.16772,0,0,1,171.12059,28.97128Z"/><path class="cls-4" d="M183.63328,41.46151a4.98727,4.98727,0,0,1-1.668-1.14453,5.24737,5.24737,0,0,1-1.09277-1.72949,5.93656,5.93656,0,0,1-.39062-2.1875,5.8706,5.8706,0,0,1,.39062-2.16407,5.24737,5.24737,0,0,1,1.09277-1.72949,5.00411,5.00411,0,0,1,1.668-1.14551,5.27869,5.27869,0,0,1,2.09278-.41211,5.056,5.056,0,0,1,2.31152.51758,4.45121,4.45121,0,0,1,1.667,1.4375l-1.03515,1.01172-.16016.16113-.11524-.11425a.76283.76283,0,0,0-.08105-.34571,1.95224,1.95224,0,0,0-.35645-.43652,2.93725,2.93725,0,0,0-1.08105-.64453,4.4,4.4,0,0,0-1.334-.1836,3.00129,3.00129,0,0,0-1.26465.27442,3.316,3.316,0,0,0-1.06934.78906,3.82232,3.82232,0,0,0-.74805,1.24609,4.58162,4.58162,0,0,0-.27539,1.624,4.66919,4.66919,0,0,0,.27539,1.63476,4.07994,4.07994,0,0,0,.75977,1.292,3.388,3.388,0,0,0,1.16113.85742,3.48245,3.48245,0,0,0,1.46094.30957,3.37428,3.37428,0,0,0,1.01172-.15039,3.58853,3.58853,0,0,0,.91992-.43653,4.07888,4.07888,0,0,0,.80469-.70117l.96582,1.127a5.25512,5.25512,0,0,1-1.73633,1.24121,5.11139,5.11139,0,0,1-2.05859.41406A5.33761,5.33761,0,0,1,183.63328,41.46151Z"/><path class="cls-4" d="M111.59715,72.5328V58.18124h1.67871v2.06933a3.38145,3.38145,0,0,1,.72461-1.31054A2.90741,2.90741,0,0,1,115.105,58.193a3.79525,3.79525,0,0,1,1.36817-.24218,4.29,4.29,0,0,1,1.668.33105,3.983,3.983,0,0,1,1.40235.99219,4.8014,4.8014,0,0,1,.9668,1.665,7.97293,7.97293,0,0,1-.02344,4.78906,5.18,5.18,0,0,1-1.01172,1.74512,4.2801,4.2801,0,0,1-1.42676,1.0498,3.94807,3.94807,0,0,1-1.62109.35254,3.8014,3.8014,0,0,1-1.207-.19531,3.51158,3.51158,0,0,1-1.07032-.5752,4.46,4.46,0,0,1-.85058-.88476v5.3125Zm4.55371-5.12891a3.12518,3.12518,0,0,0,1.08106-.19336,2.56473,2.56473,0,0,0,.96679-.64746,3.16928,3.16928,0,0,0,.68946-1.24023,6.40015,6.40015,0,0,0,.25292-1.94434,6.18428,6.18428,0,0,0-.32226-2.126A2.9781,2.9781,0,0,0,117.88817,59.9a2.56733,2.56733,0,0,0-1.48438-.52344,2.67071,2.67071,0,0,0-1.207.18262,2.541,2.541,0,0,0-1.001.75,3.6946,3.6946,0,0,0-.67773,1.376,7.61894,7.61894,0,0,0-.24219,2.05762,6.79189,6.79189,0,0,0,.16113,1.31934,3.80764,3.80764,0,0,0,.3916,1.03418,2.57406,2.57406,0,0,0,.59766.72851,2.47484,2.47484,0,0,0,.78223.43164A2.919,2.919,0,0,0,116.15086,67.40389Z"/><path class="cls-4" d="M125.83445,68.692V67.358h3.1045V54.731h-2.9668v-1.334h4.64551V67.358h3.082v1.334Z"/><path class="cls-4" d="M142.647,68.87557a4.16894,4.16894,0,0,1-2.75976-.81347,2.59244,2.59244,0,0,1-.96582-2.07422,2.85512,2.85512,0,0,1,.41406-1.52344A3.61211,3.61211,0,0,1,140.4741,63.318a5.73171,5.73171,0,0,1,1.69043-.72167,8.07873,8.07873,0,0,1,2.04688-.252q.39111,0,.79394.01074c.26758.00879.55176.02344.85059.04688q.44825.03369.93164.10351l.0459,1.26465c-.27637-.0459-.55567-.081-.83985-.10351-.2832-.02344-.56347-.042-.83886-.05762-.27637-.01465-.54493-.02344-.80567-.02344a7.844,7.844,0,0,0-1.51758.1377,4.219,4.219,0,0,0-1.19628.41211,2.08039,2.08039,0,0,0-.78223.708,1.9276,1.9276,0,0,0-.27539,1.05273,1.7496,1.7496,0,0,0,.17187.81152,1.368,1.368,0,0,0,.47168.52637,2.15558,2.15558,0,0,0,.70215.28613,4.01843,4.01843,0,0,0,.88477.09082,4.20816,4.20816,0,0,0,1.59863-.28515,3.22812,3.22812,0,0,0,1.19629-.832,3.60631,3.60631,0,0,0,.74707-1.34668,6.02916,6.02916,0,0,0,.25293-1.82422,6.37152,6.37152,0,0,0-.36719-2.418,2.335,2.335,0,0,0-1.09277-1.23145,4.46257,4.46257,0,0,0-3.34668-.07812,3.87372,3.87372,0,0,0-1.334.88574l-.80468-1.05762a4.77986,4.77986,0,0,1,1.70214-1.10449,5.69923,5.69923,0,0,1,2.04688-.36816,6.62874,6.62874,0,0,1,1.88574.25293,3.53042,3.53042,0,0,1,1.46094.83984,3.85616,3.85616,0,0,1,.94238,1.5752,7.87239,7.87239,0,0,1,.334,2.48437V68.692h-1.794V67.01327a3.16956,3.16956,0,0,1-.72461.94238,3.23026,3.23026,0,0,1-.90918.56348,4.48578,4.48578,0,0,1-.98828.27636A6.16238,6.16238,0,0,1,142.647,68.87557Z"/><path class="cls-4" d="M153.16942,72.41756a3.15431,3.15431,0,0,1-1.06934-.667l.71289-1.12695.13867-.207.13768.09277a.70589.70589,0,0,0,.16115.31055,2.34324,2.34324,0,0,0,.43652.333,2.67581,2.67581,0,0,0,.4375.10351,3.17825,3.17825,0,0,0,.48243.03418,1.78366,1.78366,0,0,0,1.04687-.29687,2.49622,2.49622,0,0,0,.74707-.916,9.928,9.928,0,0,0,.62109-1.55664l2.001-6.167q.3457-1.0547.667-2.08692a11,11,0,0,0,.4375-2.08593h1.65625a13.778,13.778,0,0,1-.50683,2.13183q-.34425,1.07813-.73535,2.15528l-2.62207,7.38281a4.4721,4.4721,0,0,1-1.415,2.166,3.27769,3.27769,0,0,1-1.98926.63086A3.7825,3.7825,0,0,1,153.16942,72.41756Zm-.51758-14.23632h1.72558l3.40332,8.73535-.73535,2.04Z"/><path class="cls-4" d="M171.64988,68.87557a5.92959,5.92959,0,0,1-2.09277-.35351,4.45332,4.45332,0,0,1-1.62207-1.04,4.60412,4.60412,0,0,1-1.0459-1.70313,7.48812,7.48812,0,0,1,.01172-4.67383,5.024,5.024,0,0,1,1.03418-1.72558,4.39213,4.39213,0,0,1,1.541-1.0625,4.86109,4.86109,0,0,1,1.875-.36621,4.68486,4.68486,0,0,1,1.67871.29785,3.62715,3.62715,0,0,1,1.35742.90527,4.31771,4.31771,0,0,1,.9082,1.5459,6.64043,6.64043,0,0,1,.334,2.22168c0,.123-.00391.249-.01172.37891s-.01953.25586-.03418.37793h-7.47559a5.2612,5.2612,0,0,0,.34473,1.73828,3.4268,3.4268,0,0,0,.78222,1.20508,3.09662,3.09662,0,0,0,1.11524.69336,3.95314,3.95314,0,0,0,1.3457.22656,4.09047,4.09047,0,0,0,1.03516-.126,3.258,3.258,0,0,0,.9082-.3916,3.42352,3.42352,0,0,0,.77051-.65527l.91992.89746a4.42357,4.42357,0,0,1-1,.89648,4.11593,4.11593,0,0,1-1.23047.541A5.77039,5.77039,0,0,1,171.64988,68.87557Zm-3.47265-6.48535h5.77246a4.13007,4.13007,0,0,0-.19531-1.31348,3.0335,3.0335,0,0,0-.55176-1.0039,2.31943,2.31943,0,0,0-.85156-.63965,2.74769,2.74769,0,0,0-1.11524-.2168,2.98276,2.98276,0,0,0-1.0459.18262,2.60493,2.60493,0,0,0-.90918.582,3.46912,3.46912,0,0,0-.70117.99316A4.7294,4.7294,0,0,0,168.17723,62.39022Z"/><path class="cls-4" d="M181.93113,58.18124h1.72461l-.06933,3.082-.207-.34571a3.71522,3.71522,0,0,1,.48339-1.26464,3.55848,3.55848,0,0,1,1.88575-1.50684,3.70547,3.70547,0,0,1,1.19629-.19531,3.98181,3.98181,0,0,1,1.52929.28808,3.6443,3.6443,0,0,1,1.25391.86231l-.73633,1.28808-.0918.207-.16113-.09278a1.41348,1.41348,0,0,0-.13769-.34472,1.555,1.555,0,0,0-.39161-.39063,2.48009,2.48009,0,0,0-.67773-.31055,2.8023,2.8023,0,0,0-.70215-.081,3.2382,3.2382,0,0,0-1.14941.21777,3.03774,3.03774,0,0,0-1.04688.67578,3.22088,3.22088,0,0,0-.74707,1.167,4.65419,4.65419,0,0,0-.27637,1.69335V68.692h-1.67871Z"/></svg>