<svg id="Ebene_3" data-name="Ebene 3" xmlns="http://www.w3.org/2000/svg" xmlns:xlink="http://www.w3.org/1999/xlink" viewBox="0 0 236.97563 99.8442"><defs><style>.cls-1,.cls-3,.cls-5,.cls-6,.cls-7,.cls-8{fill:none;}.cls-2{clip-path:url(#clip-path);}.cls-3,.cls-5,.cls-6,.cls-7,.cls-8{stroke:#58c08c;}.cls-3{stroke-width:1.5px;}.cls-4{fill:#58c08c;}.cls-5,.cls-7,.cls-8{stroke-linecap:round;}.cls-5,.cls-6,.cls-7,.cls-8{stroke-linejoin:round;}.cls-5{stroke-width:0.28px;}.cls-6,.cls-7{stroke-width:1.121px;}.cls-8{stroke-width:0.561px;}</style><clipPath id="clip-path"><rect class="cls-1" x="19.33903" y="15.43138" width="233.69901" height="65.977"/></clipPath></defs><g class="cls-2"><line class="cls-3" x1="97.40003" y1="19.80777" x2="97.40003" y2="80.40877"/><path class="cls-4" d="M46.833,36.79607s-13.657-.636-17.76,10.491c0,0-3.986,12.109,9.395,18.799a31.43568,31.43568,0,0,0,27.091-.636,16.99087,16.99087,0,0,0,6.706-6.401,15.09924,15.09924,0,0,0-.666-16.328,27.83541,27.83541,0,0,0-6.358-5.723,53.35283,53.35283,0,0,0-5.15-3.179c-2.695-1.452-5.927-2.767-7.377-4.175,0,0-3.919-3.077-3.497-9.697,0,0-2.891,7.037,2.832,12.283a26.68,26.68,0,0,0,5.976,4.037c.16.083,1.876,1.081,3.274,2.003,3.527,2.324,8.393,5.404,8.423,11.719a12.409,12.409,0,0,1-2.573,7.991,16.07549,16.07549,0,0,1-7.185,5.721s-8.71,3.561-17.264.116c0,0-10.774-4.248-9.63-15.248a9.95713,9.95713,0,0,1,2.035-4.808,19.07247,19.07247,0,0,1,11.728-6.965"/><path class="cls-5" d="M46.833,36.79607s-13.657-.636-17.76,10.491c0,0-3.986,12.109,9.395,18.799a31.43568,31.43568,0,0,0,27.091-.636,16.99087,16.99087,0,0,0,6.706-6.401,15.09924,15.09924,0,0,0-.666-16.328,27.83541,27.83541,0,0,0-6.358-5.723,53.35283,53.35283,0,0,0-5.15-3.179c-2.695-1.452-5.927-2.767-7.377-4.175,0,0-3.919-3.077-3.497-9.697,0,0-2.891,7.037,2.832,12.283a26.68,26.68,0,0,0,5.976,4.037c.16.083,1.876,1.081,3.274,2.003,3.527,2.324,8.393,5.404,8.423,11.719a12.409,12.409,0,0,1-2.573,7.991,16.07549,16.07549,0,0,1-7.185,5.721s-8.71,3.561-17.264.116c0,0-10.774-4.248-9.63-15.248a9.95713,9.95713,0,0,1,2.035-4.808A19.07247,19.07247,0,0,1,46.833,36.79607Z"/></g><rect class="cls-4" x="54.23803" y="46.87137" width="8.853" height="1.705"/><rect class="cls-6" x="54.23803" y="46.87137" width="8.853" height="1.705"/><g class="cls-2"><path class="cls-4" d="M29.25043,37.12487s-9.392,5.143-9.348,15.292a17.195,17.195,0,0,0,10.892,15.866s-9.209-6.303-8.83-16.655c0,0-.01-7.663,7.286-14.503"/><path class="cls-7" d="M29.25043,37.12487s-9.392,5.143-9.348,15.292a17.195,17.195,0,0,0,10.892,15.866s-9.209-6.303-8.83-16.655C21.96443,51.62787,21.95443,43.96487,29.25043,37.12487Z"/><path class="cls-4" d="M74.03353,37.09467s9.254,5.387,8.944,15.531a17.19633,17.19633,0,0,1-11.303,15.576s9.371-6.06,9.263-16.419c0,0,.21-7.659-6.904-14.688"/><path class="cls-7" d="M74.03353,37.09467s9.254,5.387,8.944,15.531a17.19633,17.19633,0,0,1-11.303,15.576s9.371-6.06,9.263-16.419C80.93753,51.78267,81.14753,44.12367,74.03353,37.09467Z"/><path class="cls-4" d="M50.98473,58.049s-5.86-.459-9.202-4.312c0,0-2.224-2.092-2.731-7.209-.092-.923-2.647,5.589,2.847,10.522a13.51165,13.51165,0,0,0,9.074,3.366s0-.233.012-2.367"/><path class="cls-8" d="M50.98473,58.049s-5.86-.459-9.202-4.312c0,0-2.224-2.092-2.731-7.209-.092-.923-2.647,5.589,2.847,10.522a13.51165,13.51165,0,0,0,9.074,3.366S50.97274,60.183,50.98473,58.049Z"/></g><path class="cls-4" d="M116.15312,46.14364a10.51323,10.51323,0,0,1-1.98925-.17188,5.523,5.523,0,0,1-1.51758-.50488,2.54188,2.54188,0,0,1-.9668-.83691,2.11541,2.11541,0,0,1-.333-1.19239,2.34291,2.34291,0,0,1,.27637-1.14648,2.55035,2.55035,0,0,1,.72363-.83691,3.22281,3.22281,0,0,1,.97754-.49317l.69043.41309a3.58859,3.58859,0,0,0-.667.5039,1.51427,1.51427,0,0,0-.36816.584,2.41172,2.41172,0,0,0-.11524.79,1.14281,1.14281,0,0,0,.23047.69922,1.73013,1.73013,0,0,0,.65527.51464,4.12311,4.12311,0,0,0,1.03516.32129,7.60489,7.60489,0,0,0,1.3916.11426,5.5901,5.5901,0,0,0,1.71387-.2168,2.14423,2.14423,0,0,0,.97654-.59472,1.28662,1.28662,0,0,0,.32229-.8584,1.652,1.652,0,0,0-.1836-.8252,1.19043,1.19043,0,0,0-.75879-.48144,6.99443,6.99443,0,0,0-1.748-.16113,14.44058,14.44058,0,0,1-1.47266-.06836,6.35236,6.35236,0,0,1-1.19531-.2295,3.28784,3.28784,0,0,1-.88574-.40136,1.63091,1.63091,0,0,1-.541-.585,1.68082,1.68082,0,0,1-.18359-.80176,2.19143,2.19143,0,0,1,.333-1.14844,4.58286,4.58286,0,0,1,.90918-1.05664l.78223.62109a4.61751,4.61751,0,0,0-.36816.44727,1.398,1.398,0,0,0-.19532.36816,1.16853,1.16853,0,0,0-.05761.37891.72644.72644,0,0,0,.28711.5957,2.15808,2.15808,0,0,0,1.001.333,14.23779,14.23779,0,0,0,1.93164.10254,8.18825,8.18825,0,0,1,1.97754.19531,2.70294,2.70294,0,0,1,1.16211.56153,1.99658,1.99658,0,0,1,.56348.84863,3.32744,3.32744,0,0,1,.16113,1.05469,2.96,2.96,0,0,1-.24219,1.18066,2.75017,2.75017,0,0,1-.7705,1.00879,3.89556,3.89556,0,0,1-1.40235.71094A7.49572,7.49572,0,0,1,116.15312,46.14364Zm-.48242-7.498a3.79816,3.79816,0,0,1-1.95508-.48535,3.35322,3.35322,0,0,1-1.27636-1.30859,3.73687,3.73687,0,0,1-.44922-1.81641,3.67657,3.67657,0,0,1,.44922-1.80566,3.37211,3.37211,0,0,1,1.27636-1.29786,4.202,4.202,0,0,1,3.9209,0,3.392,3.392,0,0,1,1.26563,1.29786,3.67589,3.67589,0,0,1,.44824,1.80566,3.73616,3.73616,0,0,1-.44824,1.81641,3.373,3.373,0,0,1-1.26563,1.30859A3.78138,3.78138,0,0,1,115.6707,38.64559Zm0-1.37988a2.3107,2.3107,0,0,0,1.18457-.30176,2.21893,2.21893,0,0,0,.81641-.81348,2.25232,2.25232,0,0,0,0-2.24218,2.25293,2.25293,0,0,0-.81641-.80371,2.48293,2.48293,0,0,0-2.36914,0,2.2529,2.2529,0,0,0-.8164.80371,2.25232,2.25232,0,0,0,0,2.24218,2.2189,2.2189,0,0,0,.8164.81348A2.3057,2.3057,0,0,0,115.6707,37.26571Zm3.0586-3.84082-.64356-.75977a4.46127,4.46127,0,0,1,1.3916-.97656,3.6637,3.6637,0,0,1,1.71289-.24219l.207,1.35742a5.48965,5.48965,0,0,0-1.42578.0459A2.70628,2.70628,0,0,0,118.7293,33.42489Z"/><path class="cls-4" d="M129.1248,42.37118a4.16889,4.16889,0,0,1-2.75976-.81348,2.59242,2.59242,0,0,1-.96582-2.07422,2.85517,2.85517,0,0,1,.41406-1.52344,3.61208,3.61208,0,0,1,1.13867-1.14648,5.73172,5.73172,0,0,1,1.69043-.72168,8.07874,8.07874,0,0,1,2.04688-.252q.39111,0,.79394.01074c.26758.00879.55176.02344.85059.04687q.44825.0337.93164.10352l.0459,1.26465c-.27637-.0459-.55567-.08106-.83985-.10352-.2832-.02343-.56347-.042-.83886-.05761-.27637-.01465-.54493-.02344-.80567-.02344a7.844,7.844,0,0,0-1.51758.13769,4.21929,4.21929,0,0,0-1.19628.41211,2.08055,2.08055,0,0,0-.78223.708,1.92757,1.92757,0,0,0-.27539,1.05274,1.7496,1.7496,0,0,0,.17187.81152,1.368,1.368,0,0,0,.47168.52637,2.15558,2.15558,0,0,0,.70215.28613,4.01843,4.01843,0,0,0,.88477.09082,4.20815,4.20815,0,0,0,1.59863-.28516,3.22789,3.22789,0,0,0,1.19629-.832,3.60623,3.60623,0,0,0,.74707-1.34668,6.02906,6.02906,0,0,0,.25293-1.82422,6.37156,6.37156,0,0,0-.36719-2.418A2.33493,2.33493,0,0,0,131.6209,33.169a4.46251,4.46251,0,0,0-3.34668-.07813,3.87389,3.87389,0,0,0-1.334.88575l-.80468-1.05762a4.77972,4.77972,0,0,1,1.70214-1.10449,5.69923,5.69923,0,0,1,2.04688-.36817,6.62874,6.62874,0,0,1,1.88574.25293,3.53044,3.53044,0,0,1,1.46094.83985,3.85605,3.85605,0,0,1,.94238,1.57519,7.8725,7.8725,0,0,1,.334,2.48438v5.58886h-1.79395V40.50887a3.16964,3.16964,0,0,1-.72461.94239,3.23,3.23,0,0,1-.90918.56347,4.486,4.486,0,0,1-.98828.27637A6.16238,6.16238,0,0,1,129.1248,42.37118Z"/><path class="cls-4" d="M140.78691,31.67684h1.72461l-.06933,3.082-.207-.3457a3.71535,3.71535,0,0,1,.48339-1.26465,3.5584,3.5584,0,0,1,1.88575-1.50683,3.70521,3.70521,0,0,1,1.19629-.19532,3.98182,3.98182,0,0,1,1.52929.28809,3.64414,3.64414,0,0,1,1.25391.8623l-.73633,1.28809-.0918.207-.16113-.09277a1.41355,1.41355,0,0,0-.13769-.34473,1.55513,1.55513,0,0,0-.39161-.39062,2.47983,2.47983,0,0,0-.67773-.31055,2.80228,2.80228,0,0,0-.70215-.08106,3.23821,3.23821,0,0,0-1.14941.21778,3.0375,3.0375,0,0,0-1.04688.67578,3.22113,3.22113,0,0,0-.74709,1.167,4.65473,4.65473,0,0,0-.27635,1.69336v5.56152h-1.67871Z"/><path class="cls-4" d="M153.6668,42.18758v-1.334h3.10449v-12.627h-2.9668v-1.334H158.45V40.8536h3.082v1.334Z"/><path class="cls-4" d="M167.949,42.18758v-1.334h2.69141V33.01083h-2.55274v-1.334h4.209V40.8536h2.46094v1.334Zm3.42676-12.71875a1.18038,1.18038,0,0,1-1.17285-1.17285,1.17741,1.17741,0,0,1,.334-.85156,1.11851,1.11851,0,0,1,.83887-.34473,1.21762,1.21762,0,0,1,1.19629,1.19629,1.11111,1.11111,0,0,1-.35645.82715A1.1677,1.1677,0,0,1,171.37578,29.46883Z"/><path class="cls-4" d="M183.88848,41.95907a4.98722,4.98722,0,0,1-1.668-1.14453,5.24734,5.24734,0,0,1-1.09278-1.7295,5.93607,5.93607,0,0,1-.39062-2.1875,5.8701,5.8701,0,0,1,.39062-2.16406,5.2474,5.2474,0,0,1,1.09278-1.72949,5.00391,5.00391,0,0,1,1.668-1.14551,5.27864,5.27864,0,0,1,2.09277-.41211,5.05586,5.05586,0,0,1,2.31152.51758,4.45121,4.45121,0,0,1,1.667,1.4375l-1.03515,1.01172-.16016.16113-.11523-.11426a.76283.76283,0,0,0-.08106-.3457,1.95213,1.95213,0,0,0-.35644-.43652,2.93723,2.93723,0,0,0-1.08106-.64453,4.4,4.4,0,0,0-1.334-.1836,3.00132,3.00132,0,0,0-1.26465.27442,3.3159,3.3159,0,0,0-1.06934.78906,3.8223,3.8223,0,0,0-.748,1.24609,4.58135,4.58135,0,0,0-.27539,1.624,4.669,4.669,0,0,0,.27539,1.63476,4.07994,4.07994,0,0,0,.75976,1.292,3.3879,3.3879,0,0,0,1.16114.85743,3.48237,3.48237,0,0,0,1.46093.30957,3.37423,3.37423,0,0,0,1.01172-.15039,3.58837,3.58837,0,0,0,.91992-.43653,4.07888,4.07888,0,0,0,.80469-.70117l.96582,1.127a5.25488,5.25488,0,0,1-1.73633,1.24121,5.11116,5.11116,0,0,1-2.05859.41407A5.33752,5.33752,0,0,1,183.88848,41.95907Z"/><path class="cls-4" d="M112.28984,69.19V67.856h3.1045V55.22909h-2.9668V53.89461h4.64551V67.856h3.082V69.19Z"/><path class="cls-4" d="M129.1248,69.37362a4.16889,4.16889,0,0,1-2.75976-.81348,2.59242,2.59242,0,0,1-.96582-2.07422,2.85511,2.85511,0,0,1,.41406-1.52343A3.612,3.612,0,0,1,126.952,63.816a5.732,5.732,0,0,1,1.69043-.72168,8.07874,8.07874,0,0,1,2.04688-.252q.39111,0,.79394.01074c.26758.00879.55176.02344.85059.04688q.44825.03369.93164.10351l.0459,1.26465c-.27637-.0459-.55567-.08105-.83985-.10352-.2832-.02343-.56347-.042-.83886-.05761-.27637-.01465-.54493-.02344-.80567-.02344a7.8432,7.8432,0,0,0-1.51758.1377,4.219,4.219,0,0,0-1.19628.4121,2.08055,2.08055,0,0,0-.78223.708,1.92757,1.92757,0,0,0-.27539,1.05274,1.7496,1.7496,0,0,0,.17187.81152,1.368,1.368,0,0,0,.47168.52637,2.15558,2.15558,0,0,0,.70215.28613,4.01843,4.01843,0,0,0,.88477.09082,4.20815,4.20815,0,0,0,1.59863-.28516,3.22789,3.22789,0,0,0,1.19629-.832,3.60615,3.60615,0,0,0,.74707-1.34668,6.02906,6.02906,0,0,0,.25293-1.82422,6.37146,6.37146,0,0,0-.36719-2.418,2.33492,2.33492,0,0,0-1.09277-1.23145,4.46257,4.46257,0,0,0-3.34668-.07812,3.87372,3.87372,0,0,0-1.334.88574l-.80468-1.05762a4.77986,4.77986,0,0,1,1.70214-1.10449,5.69923,5.69923,0,0,1,2.04688-.36817,6.6291,6.6291,0,0,1,1.88574.25293,3.53044,3.53044,0,0,1,1.46094.83985,3.85605,3.85605,0,0,1,.94238,1.57519,7.8725,7.8725,0,0,1,.334,2.48438V69.19h-1.79395V67.51131a3.16964,3.16964,0,0,1-.72461.94239,3.23,3.23,0,0,1-.90918.56347,4.486,4.486,0,0,1-.98828.27637A6.16238,6.16238,0,0,1,129.1248,69.37362Z"/><path class="cls-4" d="M143.13262,69.37362a3.7013,3.7013,0,0,1-1.17286-.18262,2.99792,2.99792,0,0,1-1.001-.55957,3.40779,3.40779,0,0,1-.77051-.94824,4.88272,4.88272,0,0,1-.49414-1.37109,8.581,8.581,0,0,1-.17285-1.80567l.02344-5.82715h1.61035v5.82227a6.48537,6.48537,0,0,0,.18359,1.666,2.91748,2.91748,0,0,0,.51758,1.09668,1.95448,1.95448,0,0,0,.77051.59278,2.35383,2.35383,0,0,0,.91992.18261,2.64294,2.64294,0,0,0,1.9668-.86718,3.05026,3.05026,0,0,0,.63183-1.11914,5.10072,5.10072,0,0,0,.23047-1.6211V58.67928h1.60938v8.87793q0,.41308.03515.81641a2.92017,2.92017,0,0,0,.19531.81641h-1.58691a2.69019,2.69019,0,0,1-.16113-.56348,4.4394,4.4394,0,0,1-.05762-.56348c-.00781-.19238-.01172-.376-.01172-.55176a3.75527,3.75527,0,0,1-.59765.78125,3.58225,3.58225,0,0,1-.77051.58692,3.81049,3.81049,0,0,1-.89649.36816A3.8664,3.8664,0,0,1,143.13262,69.37362Z"/><path class="cls-4" d="M153.50566,69.19V58.67928H155.115V60.565a5.06139,5.06139,0,0,1,.9668-1.11524,4.30016,4.30016,0,0,1,1.21875-.73633,3.7195,3.7195,0,0,1,1.37988-.26465,2.86286,2.86286,0,0,1,1.56347.43653,2.97611,2.97611,0,0,1,1.1045,1.39941,6.54273,6.54273,0,0,1,.41406,2.54785V69.19h-1.61035V62.88045a4.97177,4.97177,0,0,0-.25293-1.75488,1.89649,1.89649,0,0,0-.68946-.94043,1.763,1.763,0,0,0-.98925-.28711,2.7113,2.7113,0,0,0-1.06934.2295,3.47681,3.47681,0,0,0-1.001.65429,3.35216,3.35216,0,0,0-.74707,1.02051,3.07086,3.07086,0,0,0-.28808,1.35352V69.19Z"/><path class="cls-4" d="M170.08867,68.96151a4.98727,4.98727,0,0,1-1.668-1.14453,5.24737,5.24737,0,0,1-1.09277-1.72949A5.93656,5.93656,0,0,1,166.9373,63.9a5.8706,5.8706,0,0,1,.39063-2.16407,5.24737,5.24737,0,0,1,1.09277-1.72949,5.00411,5.00411,0,0,1,1.668-1.14551,5.27867,5.27867,0,0,1,2.09277-.41211,5.05606,5.05606,0,0,1,2.31153.51758,4.45121,4.45121,0,0,1,1.667,1.4375l-1.03516,1.01172-.16015.16113-.11524-.11425a.76283.76283,0,0,0-.08105-.34571,1.95224,1.95224,0,0,0-.35645-.43652,2.93725,2.93725,0,0,0-1.08105-.64453,4.4,4.4,0,0,0-1.334-.1836,3.00128,3.00128,0,0,0-1.26464.27442,3.316,3.316,0,0,0-1.06934.78906,3.82232,3.82232,0,0,0-.74805,1.24609,4.58162,4.58162,0,0,0-.27539,1.624,4.66919,4.66919,0,0,0,.27539,1.63476,4.07994,4.07994,0,0,0,.75977,1.292,3.388,3.388,0,0,0,1.16113.85742,3.48242,3.48242,0,0,0,1.46094.30957,3.37428,3.37428,0,0,0,1.01172-.15039,3.58853,3.58853,0,0,0,.91992-.43653,4.07888,4.07888,0,0,0,.80469-.70117l.96582,1.127a5.25512,5.25512,0,0,1-1.73633,1.24121,5.11139,5.11139,0,0,1-2.05859.41406A5.33757,5.33757,0,0,1,170.08867,68.96151Z"/><path class="cls-4" d="M181.12773,53.89461h1.81739v.16211a.60294.60294,0,0,0-.17286.29981,3.08346,3.08346,0,0,0-.03417.55371V60.565a4.9076,4.9076,0,0,1,.97753-1.11524,4.663,4.663,0,0,1,1.19629-.73633,3.28873,3.28873,0,0,1,1.27637-.26465,3.16594,3.16594,0,0,1,1.667.43653,2.83854,2.83854,0,0,1,1.127,1.39941,6.71381,6.71381,0,0,1,.40234,2.54785V69.19h-1.60938V62.88045a4.9942,4.9942,0,0,0-.25293-1.75488,1.89771,1.89771,0,0,0-.69042-.94043,1.76078,1.76078,0,0,0-.98926-.28711,2.8233,2.8233,0,0,0-.85061.1377,3.18085,3.18085,0,0,0-.83982.41308,3.36009,3.36009,0,0,0-.72461.67676,3.1851,3.1851,0,0,0-.50586.90625,3.25436,3.25436,0,0,0-.18359,1.124V69.19h-1.61036Z"/><path class="cls-4" d="M199.48223,69.37362a5.92961,5.92961,0,0,1-2.09278-.35352,4.45315,4.45315,0,0,1-1.62207-1.04,4.60408,4.60408,0,0,1-1.0459-1.70312,7.48812,7.48812,0,0,1,.01172-4.67383,5.024,5.024,0,0,1,1.03418-1.72558,4.39213,4.39213,0,0,1,1.541-1.0625,4.86091,4.86091,0,0,1,1.875-.36622,4.68465,4.68465,0,0,1,1.67871.29786,3.627,3.627,0,0,1,1.35742.90527,4.31771,4.31771,0,0,1,.9082,1.5459,6.64038,6.64038,0,0,1,.334,2.22168c0,.123-.00391.249-.01172.3789s-.01953.25586-.03418.37793h-7.47559a5.26109,5.26109,0,0,0,.34473,1.73828,3.42649,3.42649,0,0,0,.78223,1.20508,3.09644,3.09644,0,0,0,1.11523.69336,3.95294,3.95294,0,0,0,1.3457.22656,4.09093,4.09093,0,0,0,1.03516-.126,3.25845,3.25845,0,0,0,.9082-.3916,3.42278,3.42278,0,0,0,.77049-.65528l.91994.89746a4.42361,4.42361,0,0,1-1,.89649,4.11579,4.11579,0,0,1-1.23047.541A5.76989,5.76989,0,0,1,199.48223,69.37362Zm-3.47266-6.48535H201.782a4.13,4.13,0,0,0-.19531-1.31348,3.03338,3.03338,0,0,0-.55176-1.00391,2.31926,2.31926,0,0,0-.85156-.63964,2.74746,2.74746,0,0,0-1.11524-.2168,2.9828,2.9828,0,0,0-1.0459.18262,2.6049,2.6049,0,0,0-.90917.582,3.46881,3.46881,0,0,0-.70118.99316A4.7294,4.7294,0,0,0,196.00957,62.88827Z"/><path class="cls-4" d="M209.76348,58.67928h1.72461l-.06934,3.082-.207-.3457a3.71516,3.71516,0,0,1,.4834-1.26465,3.55833,3.55833,0,0,1,1.88574-1.50683,3.70525,3.70525,0,0,1,1.19629-.19532,3.98178,3.98178,0,0,1,1.52929.28809,3.64418,3.64418,0,0,1,1.25391.8623l-.73633,1.28809-.09179.207-.16114-.09277a1.41355,1.41355,0,0,0-.13769-.34473,1.55522,1.55522,0,0,0-.3916-.39062,2.48,2.48,0,0,0-.67774-.31055,2.80224,2.80224,0,0,0-.70215-.081,3.2382,3.2382,0,0,0-1.14941.21777,3.03774,3.03774,0,0,0-1.04688.67578,3.22092,3.22092,0,0,0-.74707,1.167,4.65429,4.65429,0,0,0-.27636,1.69336V69.19h-1.67871Z"/></svg>